<?xml version="1.0" encoding="UTF-8"?><svg id="Layer_2" xmlns="http://www.w3.org/2000/svg" viewBox="0 0 174.3 196.25"><defs><style>.cls-1{fill:#2890a6;stroke-width:4px;}.cls-1,.cls-2,.cls-3,.cls-4,.cls-5,.cls-6{stroke-miterlimit:10;}.cls-1,.cls-2,.cls-3,.cls-6{stroke:#000;}.cls-2,.cls-3,.cls-5,.cls-6{stroke-width:3px;}.cls-3,.cls-4,.cls-5{fill:none;}.cls-4{stroke:#2890a6;stroke-width:2px;}.cls-5{stroke:#1a1a1a;}.cls-6{fill:#fff;}</style></defs><g id="Layer_1-2"><rect class="cls-1" x="2" y="14.41" width="156.06" height="179.83"/><path class="cls-6" d="M2,16.95S20.78,186.17,26.56,184.77c5.78-1.4,141.16-9.77,145.72,0,4.56,9.77-22.7-149.92-15.57-167.82H2Z"/><ellipse class="cls-2" cx="32.34" cy="24.19" rx="1.44" ry="1.4"/><ellipse class="cls-2" cx="77.14" cy="24.19" rx="1.44" ry="1.4"/><ellipse class="cls-2" cx="120.49" cy="24.19" rx="1.44" ry="1.4"/><path class="cls-3" d="M73.26,13.95c-.58-13.27,13.14-12.44,13.14-12.44,0,0,13.72,.84,12.87,12.7-.85,11.86-13.14,12.44-13.14,12.44,0,0-6.51,.63-9.35-3.58"/><path class="cls-5" d="M28.73,15.11c-.72-13.27,13-12.57,13-12.57,0,0,13.73,.7,13,12.57-.72,11.87-13,12.57-13,12.57,0,0-6.5,.7-9.39-3.49"/><path class="cls-3" d="M116.61,14.08c-.72-13.27,13-12.57,13-12.57,0,0,13.73,.7,13,12.57s-13,12.57-13,12.57c0,0-6.5,.7-9.39-3.49"/><path class="cls-4" d="M142.03,102.88c-11.81,2.02-24.28,3.99-35.56,.02-1.42-.5-2.83-1.1-4.33-1.31-1.36-.19-2.74-.07-4.1,.06l-24.69,2.32c-.87,.08-1.8,.15-2.55-.27s-1.15-1.52-.54-2.12c-.62,1.7-1.39,3.58-3.1,4.32-2.41,1.05-5.29-1.02-5.98-3.48s.12-5.07,.92-7.51c.98,3.49,.97,7.59-1.52,10.29s-8,2.56-9.3-.82c-1.58,1.13-3.55,1.76-5.52,1.76-.59,0-1.25-.09-1.62-.54s-.1-1.31,.49-1.27c-1.29,1.17-3.19,2.01-4.82,1.35s-2.05-3.38-.39-3.99c1.37-.5,2.73,.71,3.59,1.85-3-.17-6.03,.3-8.82,1.37-.93,.36-1.95,.91-2.13,1.87-.13,.65,.18,1.31,.57,1.84,1.48,2.02,4.38,2.95,6.81,2.18,0-3.89-3.72-6.67-7.04-8.87-.64-.42-1.3-.87-1.69-1.52-.73-1.21-.18-2.97,1.12-3.59s3.07,.03,3.63,1.32m0,29.34c.14-2.01,3.35-2.07,5.01-.86s3.12,3.12,5.2,3.09c1.06-.02,2.04-.56,2.91-1.15,3.84-2.57,6.91-6.2,8.75-10.34-1.86,2.09-.13,5.78,2.65,6.41,2.78,.63,5.69-1.2,7-3.65,.35-.65,.61-1.36,.61-2.09,0-2.22-2.27-3.76-4.39-4.61-2.28-.92-5.15-1.44-7.03,.11-.84,.69-1.34,1.72-1.5,2.78-.69,4.46,4.12,7.93,8.64,9.04,4.53,1.11,9.37,1,13.83-.33,6.74,2.65,14.05,3.95,21.33,3.8,1-.02,2.02-.07,2.94-.45,.97-.39,1.76-1.12,2.67-1.64,1.91-1.08,4.22-1.19,6.43-1.28l26.97-1.02m-99.93,18c-.95,1.85-.02,4.18,1.58,5.54s3.72,1.98,5.76,2.56c2.2,.62,4.55,1.25,6.75,.61,2.2-.63,3.99-3.08,3-5.08-.39-.79-1.13-1.37-1.9-1.84-1.93-1.19-4.84-1.71-6.25,.03-1.05,1.29-.65,3.29,.49,4.5s2.84,1.78,4.5,2.12c3.47,.71,7.12,.6,10.53-.32,1.03-.28,2.07-.63,3.14-.57,1.07,.07,2.06,.55,3.07,.9,6.19,2.16,12.89-.62,19.37-1.75,6.91-1.21,14.01-.51,21.03-.28,9.73,.32,19.5-.26,29.12-1.73"/><g><path d="M17.55,67.28v-28.57h13.68c1.58,0,2.93,.57,4.07,1.72,1.14,1.15,1.71,2.52,1.71,4.11v7.23c0,1.59-.57,2.95-1.7,4.08s-2.49,1.7-4.08,1.7h-9.78v9.73c0,.54-.19,.99-.56,1.37s-.83,.56-1.37,.56-1.02-.19-1.4-.56c-.38-.37-.57-.83-.57-1.37Zm3.9-13.59h9.78c.52,0,.97-.19,1.35-.56,.38-.37,.57-.83,.57-1.37v-7.23c0-.54-.19-.99-.57-1.37-.38-.37-.83-.56-1.35-.56h-9.78v11.08Z"/><path d="M45.98,67.28v-28.57h13.63c1.58,0,2.93,.57,4.07,1.72,1.14,1.15,1.71,2.52,1.71,4.11v2.2c0,1.61-.57,2.98-1.7,4.12-1.13,1.14-2.49,1.71-4.08,1.71h-2.46l7.87,13.54c.24,.4,.37,.8,.37,1.19,0,.52-.2,.97-.6,1.34-.4,.38-.85,.56-1.36,.56-.77,0-1.35-.34-1.75-1.03l-9.03-15.61h-2.79v14.71c0,.54-.19,.99-.59,1.37-.39,.38-.85,.56-1.39,.56s-.99-.19-1.37-.56c-.38-.37-.56-.83-.56-1.37Zm3.86-18.57h9.78c.54,0,.99-.19,1.37-.56,.37-.38,.56-.83,.56-1.37v-2.25c0-.54-.19-.99-.56-1.37-.38-.37-.83-.56-1.37-.56h-9.78v6.1Z"/><path d="M91.81,42.61h-13.63v9.39h5.88c.52,0,.97,.19,1.35,.57,.38,.38,.57,.83,.57,1.35,0,.55-.19,1.02-.56,1.4-.38,.38-.83,.57-1.37,.57h-5.88v9.46h13.68c.52,0,.97,.19,1.35,.56,.38,.38,.57,.83,.57,1.37s-.19,.99-.58,1.37c-.39,.38-.85,.56-1.39,.56h-17.49v-30.5h17.49c.54,0,1,.19,1.39,.59,.39,.39,.58,.85,.58,1.39s-.19,.97-.58,1.35c-.39,.38-.85,.57-1.39,.57Z"/><path d="M107.05,38.71h10.04c1.22,0,2.39,.52,3.48,1.55,1.09,1.03,1.64,2.28,1.64,3.75,0,.55-.2,1.02-.59,1.4-.39,.38-.82,.57-1.3,.57-.66,0-1.11-.15-1.35-.45-.25-.3-.48-.85-.7-1.66-.22-.81-.72-1.22-1.48-1.22h-9.54c-.46,0-.69,.15-.69,.44-.01,.19,.08,.4,.28,.65l14.33,18.28c.69,.89,1.04,1.83,1.04,2.84,0,1.15-.42,2.16-1.25,3.03-.83,.87-1.76,1.31-2.79,1.31h-10.4c-1.38,0-2.57-.52-3.59-1.57-1.02-1.05-1.53-2.2-1.53-3.45,0-1.44,.67-2.16,2.02-2.16,.52,0,.96,.19,1.33,.56,.37,.38,.55,.81,.55,1.32,0,.41,.14,.76,.42,1.03s.64,.41,1.07,.41h9.59c.41,0,.62-.16,.62-.49,.01-.16-.08-.36-.28-.6l-14.31-18.28c-.67-.87-1.01-1.82-1.01-2.85,0-1.19,.43-2.23,1.29-3.11s1.89-1.32,3.1-1.32Z"/><path d="M135.44,38.71h10.04c1.22,0,2.39,.52,3.48,1.55,1.09,1.03,1.64,2.28,1.64,3.75,0,.55-.2,1.02-.59,1.4-.39,.38-.82,.57-1.3,.57-.66,0-1.11-.15-1.35-.45-.25-.3-.48-.85-.7-1.66-.22-.81-.72-1.22-1.48-1.22h-9.54c-.46,0-.69,.15-.69,.44-.01,.19,.08,.4,.28,.65l14.33,18.28c.69,.89,1.04,1.83,1.04,2.84,0,1.15-.42,2.16-1.25,3.03-.83,.87-1.76,1.31-2.79,1.31h-10.4c-1.38,0-2.57-.52-3.59-1.57-1.02-1.05-1.53-2.2-1.53-3.45,0-1.44,.67-2.16,2.02-2.16,.52,0,.96,.19,1.33,.56,.37,.38,.55,.81,.55,1.32,0,.41,.14,.76,.42,1.03s.64,.41,1.07,.41h9.59c.41,0,.62-.16,.62-.49,.01-.16-.08-.36-.28-.6l-14.31-18.28c-.67-.87-1.01-1.82-1.01-2.85,0-1.19,.43-2.23,1.29-3.11s1.89-1.32,3.1-1.32Z"/></g></g></svg>