<?xml version="1.0" encoding="UTF-8"?><svg id="Layer_2" xmlns="http://www.w3.org/2000/svg" viewBox="0 0 183.02 129.02"><defs><style>.cls-1{fill:#2890a6;}.cls-1,.cls-2{stroke:#000;stroke-miterlimit:10;stroke-width:3px;}.cls-3,.cls-2{fill:#fff;}.cls-4{fill:#f2f2f2;}</style></defs><g id="Layer_1-2"><path class="cls-2" d="M10.52,1.52S1.02,1.02,1.52,10.52V100.52s-.5,8.5,9,9H172.52s8.5-.5,9-9V10.52s-.5-9.5-9-9S10.52,1.52,10.52,1.52Z"/><rect class="cls-1" x="9.52" y="8.52" width="164" height="93" transform="translate(183.04 110.04) rotate(-180)"/><polygon class="cls-4" points="11.02 100.02 171.52 10.02 11.02 10.02 11.02 100.02"/><path class="cls-2" d="M75.59,109.52s-.57,17.5-20.57,18H127.02s-21.14-.5-20.57-18h-30.86Z"/><g><path d="M14.48,33.45v-1.21c0-.62,.32-1.11,.95-1.48l12.28-7.27c.33-.22,.67-.33,1-.33,.4,0,.75,.15,1.07,.46s.47,.69,.47,1.13c0,.58-.23,1.01-.69,1.28l-11.49,6.8,11.49,6.76c.45,.3,.68,.74,.68,1.32,0,.45-.16,.83-.47,1.13-.32,.31-.67,.46-1.07,.46-.31,0-.64-.11-1-.33l-12.29-7.25c-.63-.35-.94-.84-.94-1.48Z"/><path d="M46.86,30.19v10.37l.91,1.52h1.3l.95-1.56V22.14c0-.43,.16-.81,.47-1.12s.69-.47,1.12-.47,.79,.15,1.09,.46c.31,.31,.46,.67,.46,1.09v18.93c0,.24-.13,.56-.39,.98l-1.45,2.39c-.3,.53-.75,.8-1.35,.8h-2.93c-.93,0-1.52-.42-1.78-1.26-.28,.84-.85,1.26-1.71,1.26h-2.75c-.79,0-1.36-.29-1.71-.87l-1.34-2.25c-.25-.41-.37-.76-.37-1.06V22.14c0-.43,.16-.81,.47-1.12s.69-.47,1.12-.47c.41,0,.76,.16,1.07,.47,.3,.32,.45,.69,.45,1.12v18.46l.91,1.48h1.34l.98-1.56v-10.33c0-.43,.15-.8,.45-1.1s.67-.45,1.1-.45,.8,.15,1.1,.45c.3,.3,.45,.67,.45,1.1Z"/><path d="M74.53,23.7h-11.02v7.59h4.75c.42,0,.79,.15,1.09,.46,.31,.31,.46,.67,.46,1.09,0,.45-.15,.82-.45,1.13-.3,.31-.67,.46-1.1,.46h-4.75v7.64h11.06c.42,0,.79,.15,1.09,.45,.31,.3,.46,.67,.46,1.1s-.16,.8-.47,1.1c-.31,.3-.69,.45-1.12,.45h-14.14V20.54h14.14c.43,0,.81,.16,1.12,.47,.32,.32,.47,.69,.47,1.12s-.16,.79-.47,1.09c-.31,.31-.69,.46-1.12,.46Z"/><path d="M99.04,37.56v1.37c0,1.72-.61,3.19-1.83,4.43-1.22,1.23-2.69,1.85-4.41,1.85h-9.54V20.54h9.54c1.72,0,3.19,.61,4.41,1.84,1.22,1.22,1.83,2.7,1.83,4.43v1.32c0,1.84-.71,3.41-2.13,4.71,1.42,1.32,2.13,2.89,2.13,4.71Zm-3.19-9.46v-1.28c0-.87-.31-1.61-.92-2.23-.61-.62-1.34-.93-2.2-.93h-6.35v7.55h6.35c.84,0,1.57-.31,2.19-.92,.62-.61,.93-1.35,.93-2.2Zm0,10.84v-1.3c0-.87-.31-1.61-.92-2.23-.61-.62-1.34-.93-2.2-.93h-6.31v7.57h6.31c.84,0,1.57-.31,2.19-.92,.62-.61,.93-1.35,.93-2.2Z"/></g><g><path class="cls-3" d="M85.33,67.99h6.16c.8,.01,1.59,.27,2.35,.78,.76,.51,1.32,1.12,1.68,1.84l3.08,6.23c.58,1.13,.87,2.3,.87,3.53,0,1.14-.31,2.31-.93,3.51l-3.1,6.16c-.4,.79-.96,1.43-1.71,1.9-.74,.48-1.57,.71-2.49,.71h-5.96c-.43,0-.8-.15-1.1-.46-.3-.31-.45-.67-.45-1.09s.15-.81,.45-1.12c.3-.32,.67-.47,1.1-.47h1.63v-18.35h-1.6c-.43,0-.8-.16-1.1-.47-.3-.32-.45-.69-.45-1.12s.15-.79,.45-1.09c.3-.31,.67-.46,1.1-.46Zm4.71,3.15v18.39h1.09c.69,0,1.21-.34,1.56-1.02l3.08-6.12c.38-.8,.58-1.48,.58-2.02,0-.68-.16-1.32-.46-1.93l-3.19-6.35c-.33-.63-.88-.95-1.63-.95h-1.02Z"/><path class="cls-3" d="M120.9,71.15h-11.02v7.59h4.75c.42,0,.79,.15,1.09,.46,.31,.31,.46,.67,.46,1.09,0,.45-.15,.82-.46,1.13-.3,.31-.67,.46-1.1,.46h-4.75v7.64h11.06c.42,0,.79,.15,1.09,.45,.31,.3,.46,.67,.46,1.1s-.16,.8-.47,1.1c-.32,.3-.69,.45-1.12,.45h-14.14v-24.66h14.14c.43,0,.81,.16,1.12,.47s.47,.69,.47,1.12-.16,.79-.47,1.09c-.32,.31-.69,.46-1.12,.46Z"/><path class="cls-3" d="M145.49,69.59v5.73l-6.35,16.16c-.32,.78-.83,1.17-1.52,1.17-.73,0-1.25-.39-1.55-1.17l-6.31-16.16v-5.73c0-.45,.15-.82,.46-1.13,.3-.31,.67-.46,1.11-.46s.8,.15,1.11,.46,.46,.69,.46,1.13v5.08l4.74,12.1,4.74-12.06v-5.12c0-.44,.15-.82,.46-1.13s.67-.46,1.11-.46,.8,.15,1.11,.46c.3,.31,.46,.69,.46,1.13Z"/><path class="cls-3" d="M168.83,79.69v1.21c0,.63-.3,1.13-.9,1.49l-12.29,7.24c-.36,.22-.7,.33-1.02,.33-.4,0-.75-.15-1.07-.45-.32-.3-.47-.67-.47-1.13,0-.59,.23-1.03,.7-1.3l11.47-6.8-11.47-6.75c-.47-.3-.7-.74-.7-1.34,0-.46,.16-.84,.47-1.14,.31-.3,.67-.45,1.07-.45,.31,0,.65,.11,1.02,.33l12.29,7.26c.6,.36,.91,.86,.91,1.49Z"/></g></g></svg>