<?xml version="1.0" encoding="UTF-8"?><svg id="Layer_2" xmlns="http://www.w3.org/2000/svg" viewBox="0 0 166.53 182.5"><defs><style>.cls-1,.cls-2,.cls-3{fill:#fff;}.cls-4,.cls-5{fill:none;}.cls-4,.cls-5,.cls-2,.cls-3{stroke:#000;stroke-miterlimit:10;}.cls-4,.cls-2{stroke-width:3px;}.cls-5,.cls-3{stroke-width:5px;}.cls-6{fill:#2890a6;}</style></defs><g id="Layer_1-2"><g><g><path class="cls-6" d="M37.53,156c-4.63-3.65-8.56-7.05-12.24-11.55-.2-.25-.41-.51-.62-.78,1.2-3.44,1.36-6.56,1.36-6.56-1.5-9.89-7.5-13.11-7.5-13.11-1.69-.26-3.6-1.04-5-1-3.15-8.46-5.5-17.94-5.5-27.5,0-33.88,21.6-62.71,51.78-73.48,.33-.12,.66-.23,1-.34v15.82h52.29v-15.16c29.74,10.99,50.93,39.6,50.93,73.16,0,8.39,.03,13.64-2.38,21.12-.1-.04-.15-.05-.15-.05l-22.68,.11c-2.73,.79-3.16,3.17-3.16,3.17v35.94h-.13c-13.47,11.07-30.71,17.71-49.5,17.71-9.12,0-23.37-3.62-31.5-6.5,.07-.26,.12-.52,.17-.77,1.88-9.28-6.17-11.23-6.17-11.23-2.95-1.68-8.37-.08-11,1Z"/><path class="cls-1" d="M161.65,116.62c.64,.21,3.24,1.25,3.33,4.02,.02,.62,.04,2.67,.04,5.55h-29.36v-6.34s.43-2.38,3.16-3.17l22.68-.11s.05,.01,.15,.05Z"/><path class="cls-1" d="M165.02,126.19c.02,8.45-.01,24.14-.03,32.48h-29.33v-32.48h29.36Z"/><path class="cls-1" d="M164.99,158.67c0,3.37-.01,5.54-.01,5.54,0,0-1.36,2.38-3.57,3.17s-22.61,0-22.61,0c0,0-3.14-1.58-3.14-3.17v-5.54h29.33Z"/><path class="cls-1" d="M113.1,22.34v15.16h-1.12l-20.62-14.55h-.4l4.76-4.85c5.68,.7,11.15,2.01,16.38,3.87,.34,.12,.67,.24,1,.37Z"/><path class="cls-1" d="M113.1,1.5V22.34c-.33-.13-.66-.25-1-.37-5.23-1.86-10.7-3.17-16.38-3.87L112.03,1.5h1.07Z"/><path class="cls-1" d="M112.03,1.5l-16.31,16.6-.24-.03c-3.1-.38-6.25-.57-9.45-.57s-6.16,.18-9.17,.54L62.03,2.37v-.87h50Z"/><polygon class="cls-1" points="111.98 37.5 60.81 37.5 80.68 22.95 81.5 22.95 90.96 22.95 91.36 22.95 111.98 37.5"/><path class="cls-1" d="M95.72,18.1l-4.76,4.85h-9.46l-4.64-4.91c3.01-.36,6.07-.54,9.17-.54s6.35,.19,9.45,.57l.24,.03Z"/><path class="cls-1" d="M76.86,18.04l4.64,4.91h-.82l-19.87,14.55v-15.82c4.77-1.64,9.75-2.82,14.89-3.49,.39-.05,.77-.1,1.16-.15Z"/><path class="cls-1" d="M76.86,18.04c-.39,.05-.77,.1-1.16,.15-5.14,.67-10.12,1.85-14.89,3.49V1.5h1.22v.87l14.83,15.67Z"/><path class="cls-1" d="M54.49,166.18c-.28,1.1-2.04,7.09-7.96,8.82,0,0-41.27,5.62-45-47,0,0,3.29-4.75,12-5,1.4-.04,3.31,.74,5,1,0,0,6,3.22,7.5,13.11,0,0-.16,3.12-1.36,6.56,.21,.27,.42,.53,.62,.78-1.27,1.81-5.3-1.09-7.76,.55,0,0,7,13,15,15,0,0,1.38-2.52,5-4,2.63-1.08,8.05-2.68,11-1,0,0,8.05,1.95,6.17,11.23l-.21-.05Z"/></g><g><path class="cls-4" d="M113.1,22.34c29.74,10.99,50.93,39.6,50.93,73.16,0,8.39,.03,13.64-2.38,21.12-.04,.13-.08,.25-.12,.38"/><path class="cls-4" d="M135.53,155.79c-13.47,11.07-30.71,17.71-49.5,17.71-9.12,0-23.37-3.62-31.5-6.5,.07-.26,.12-.52,.17-.77,1.88-9.28-6.17-11.23-6.17-11.23-2.95-1.68-8.37-.08-11,1-4.63-3.65-8.56-7.05-12.24-11.55-.2-.25-.41-.51-.62-.78,1.2-3.44,1.36-6.56,1.36-6.56-1.5-9.89-7.5-13.11-7.5-13.11-1.69-.26-3.6-1.04-5-1-3.15-8.46-5.5-17.94-5.5-27.5,0-33.88,21.6-62.71,51.78-73.48,.33-.12,.66-.23,1-.34"/><polygon class="cls-4" points="62.03 1.5 60.81 1.5 60.81 21.68 60.81 37.5 111.98 37.5 113.1 37.5 113.1 22.34 113.1 1.5 112.03 1.5 62.03 1.5"/><polyline class="cls-4" points="90.96 22.95 95.72 18.1 112.03 1.5"/><polyline class="cls-4" points="62.03 2.37 76.86 18.04 81.5 22.95"/><polyline class="cls-4" points="111.98 37.5 91.36 22.95 90.96 22.95 81.5 22.95 80.68 22.95 60.81 37.5"/><path class="cls-4" d="M135.66,126.19v-6.34s.43-2.38,3.16-3.17l22.68-.11s.05,.01,.15,.05c.64,.21,3.24,1.25,3.33,4.02,.02,.62,.04,2.67,.04,5.55,.02,8.45-.01,24.14-.03,32.48,0,3.37-.01,5.54-.01,5.54,0,0-1.36,2.38-3.57,3.17s-22.61,0-22.61,0c0,0-3.14-1.58-3.14-3.17v-38.02Z"/><polyline class="cls-4" points="134.53 158.67 135.66 158.67 164.95 158.67"/><polyline class="cls-4" points="165.03 126.19 165.02 126.19 135.66 126.19 134.93 126.19"/><path class="cls-4" d="M13.53,123c-8.71,.25-12,5-12,5,3.73,52.62,45,47,45,47,5.92-1.73,7.68-7.72,7.96-8.82,.03-.12,.04-.18,.04-.18"/><path class="cls-4" d="M25.53,144c-.06,.17-.14,.32-.24,.45-1.27,1.81-5.3-1.09-7.76,.55,0,0,7,13,15,15,0,0,1.38-2.52,5-4"/></g></g><circle class="cls-3" cx="87.03" cy="94.5" r="48"/><ellipse class="cls-5" cx="87.03" cy="94.5" rx="19.08" ry="47.38"/><line class="cls-5" x1="39.03" y1="94.5" x2="135.03" y2="94.5"/><line class="cls-5" x1="129.51" y1="72.14" x2="44.56" y2="72.14"/><line class="cls-5" x1="129.51" y1="116.87" x2="44.56" y2="116.86"/><circle class="cls-2" cx="17.03" cy="59.5" r="9"/><circle class="cls-2" cx="153.53" cy="59" r="9"/><circle class="cls-2" cx="86.53" cy="172" r="9"/></g></svg>