<?xml version="1.0" encoding="UTF-8"?><svg id="Layer_2" xmlns="http://www.w3.org/2000/svg" viewBox="0 0 222.42 164.07"><defs><style>.cls-1{fill:#fff;}.cls-2{fill:none;stroke:#231f20;stroke-miterlimit:10;stroke-width:18px;}</style></defs><g id="Layer_1-2"><g><g><path class="cls-1" d="M213.42,13.51V150.55c0,1.25-.46,2.4-1.2,3.21l-70.61-71.87L211.82,9.91c.97,.82,1.6,2.13,1.6,3.6Z"/><path class="cls-1" d="M141.61,81.9l70.61,71.87c-.73,.81-1.72,1.3-2.81,1.3H13.01c-1.25,0-2.36-.64-3.11-1.65l.85-.33L79.73,81.75l.46-.57,28.4,28.64c1.65,1.67,4.18,1.66,5.82-.04l27.2-27.89Z"/><path class="cls-1" d="M141.61,81.9l-27.2,27.89c-1.64,1.7-4.17,1.71-5.82,.04l-28.4-28.64L10.51,10.91c.88-1.02,1.94-1.91,2.5-1.91H209.4c.91,0,1.74,.33,2.42,.91l-70.21,71.99Z"/><path class="cls-1" d="M10.51,10.91L80.19,81.19l-.46,.57L10.76,153.09l-.85,.33c-.57-.77-.91-1.78-.91-2.87V13.51c0-.59,.67-1.66,1.51-2.61Z"/></g><g><path class="cls-2" d="M212.21,153.76c-.73,.81-1.72,1.3-2.81,1.3H13.01c-1.25,0-2.36-.64-3.11-1.65-.57-.77-.91-1.78-.91-2.87V13.51c0-.59,.67-1.66,1.51-2.61,.88-1.02,1.94-1.91,2.5-1.91H209.4c.91,0,1.74,.33,2.42,.91,.97,.82,1.6,2.13,1.6,3.6V150.55c0,1.25-.46,2.4-1.2,3.21Z"/><path class="cls-2" d="M9,9.38l1.51,1.52L80.19,81.19l28.4,28.64c1.65,1.67,4.18,1.66,5.82-.04l27.2-27.89L211.82,9.91l.34-.34"/><line class="cls-2" x1="10.76" y1="153.09" x2="79.73" y2="81.75"/><polyline class="cls-2" points="212.66 154.22 212.21 153.76 141.61 81.9 141.18 81.47"/></g></g></g></svg>