<?xml version="1.0" encoding="UTF-8"?><svg id="Layer_2" xmlns="http://www.w3.org/2000/svg" xmlns:xlink="http://www.w3.org/1999/xlink" viewBox="0 0 229.8 332.37"><defs><style>.cls-1,.cls-2{fill:#e6e6e6;}.cls-1,.cls-2,.cls-3,.cls-4,.cls-5,.cls-6,.cls-7,.cls-8,.cls-9,.cls-10{stroke-miterlimit:10;}.cls-1,.cls-5,.cls-6,.cls-8,.cls-9{stroke:#603813;}.cls-2,.cls-3{stroke:#754c24;}.cls-11,.cls-10{fill:#fff;}.cls-12{fill:#a57d5e;}.cls-3,.cls-7,.cls-9{fill:#8c6239;}.cls-4{fill:none;}.cls-4,.cls-7,.cls-10{stroke:#fff;}.cls-13{fill:#c9a27b;}.cls-5{fill:url(#radial-gradient);}.cls-6{fill:url(#radial-gradient-2);}.cls-14{fill:#333;}.cls-15{fill:#c69c6d;}.cls-8{fill:#ddb3ab;}.cls-16{fill:#a66052;}</style><radialGradient id="radial-gradient" cx="73.8" cy="148" fx="73.8" fy="148" r="8.63" gradientTransform="matrix(1, 0, 0, 1, 0, 0)" gradientUnits="userSpaceOnUse"><stop offset=".16" stop-color="#00d472"/><stop offset=".71" stop-color="#5ca3c7"/></radialGradient><radialGradient id="radial-gradient-2" cx="158.3" cy="149.75" fx="158.3" fy="149.75" r="8.53" gradientTransform="matrix(1, 0, 0, 1, 0, 0)" gradientUnits="userSpaceOnUse"><stop offset="0" stop-color="#00e998"/><stop offset="1" stop-color="#1c89c9"/></radialGradient></defs><g id="Layer_2-2"><path class="cls-8" d="M228.48,156c-4-16-11-6-11-6,0,0-6,3-6,6s-3-55-5-63-5-24-18-33-10-11-25-11-37.68,.5-46.68,4.5c-9-4-33.5,1.5-48.5,1.5s-12,2-25,11-16,25-18,33-5,66-5,63-6-6-6-6c0,0-7-10-11,6s8,44,8,44c0,0,1,12,4,17s9,2,9,2c3,32,22,56,22,56,0,0,3,18,24,35,0,0,12.5,8.5,46.43,7.71,33.93-.79,44.75-13.71,44.75-13.71,21-17,24-35,24-35,0,0,19-24,22-56,0,0,6,3,9-2s4-17,4-17c0,0,12-28,8-44Z"/><path class="cls-15" d="M91.3,143s10.46-1.5,15,3l1-10,2.15,18-14.65-1.81"/><path class="cls-15" d="M141.44,143s-10.46-1.5-15,3l-1-10-2.15,18,14.65-1.81"/><path class="cls-12" d="M133.3,152.5s3-14,27-14c0,0,15-2,28,16l2,3s-39,9-57-5Z"/><path class="cls-1" d="M137.3,151.5s23.91-21.4,46.2,3.8c0,0-31.7,5.2-46.2-3.8Z"/><path class="cls-3" d="M45.3,141s9-12,17-12,18-1,24,2,14,7,16,6,2-9,2-10-10-7-14-7-26-1-34,3-13,20-12,19l1-1Z"/><path class="cls-12" d="M98.8,150.5s-3-14-27-14c0,0-15-2-28,16l-2,3s39,9,57-5Z"/><path class="cls-7" d="M92.3,149.59c-2.64,1.63-6.39,2.69-10.55,3.36-4.77,.77-10.08,1.03-14.86,1.05-8.04,.03-14.59-.61-14.59-.61,4.17-5.35,8.48-8.48,12.67-10.12h.01c6.69-2.63,13.04-1.46,17.94,.55,5.67,2.32,9.38,5.77,9.38,5.77Z"/><path class="cls-2" d="M46.61,154s22.36-27.75,46.77-4.13c0,0-13.95,8.63-46.77,4.13Z"/><path class="cls-4" d="M83.8,147.5c0,2.05-.76,3.94-2.05,5.45-4.77,.77-10.08,1.03-14.86,1.05-1.91-1.64-3.09-3.94-3.09-6.5,0-.96,.16-1.88,.47-2.74,.18-.52,.42-1.02,.7-1.49h.01c6.69-2.63,13.04-1.46,17.94,.55,.57,1.12,.88,2.37,.88,3.68Z"/><path class="cls-10" d="M58.8,151.5s12-16,29-2l-29,2Z"/><path class="cls-5" d="M83.8,147.57c0,2.34-.76,4.5-2.05,6.23-4.77,.88-10.08,1.18-14.86,1.2-1.91-1.87-3.09-4.5-3.09-7.43,0-1.1,.16-2.15,.47-3.13,.19-.59,.43-1.17,.71-1.7,6.69-3.01,13.04-1.67,17.94,.63,.57,1.28,.88,2.71,.88,4.2Z"/><path class="cls-13" d="M57.8,163.5l39-6s-16,12-39,6Z"/><path class="cls-3" d="M186.8,143s-9-12-17-12-18-1-24,2c-6,3-14,7-16,6s-2-9-2-10,10-7,14-7,26-1,34,3c8,4,13,20,12,19l-1-1Z"/><path class="cls-4" d="M148.3,149.5c0,2.05,.76,3.94,2.05,5.45,4.77,.77,10.08,1.03,14.86,1.05,1.91-1.64,3.09-3.94,3.09-6.5,0-.96-.16-1.88-.47-2.74-.18-.52-.42-1.02-.7-1.49h-.01c-6.69-2.63-13.04-1.46-17.94,.55-.57,1.12-.88,2.37-.88,3.68Z"/><path class="cls-10" d="M173.3,153.5s-12-16-29-2l29,2Z"/><path class="cls-6" d="M148.3,149.1c0,2.18,1.21,4.79,2.5,6.4,4.77,.82,9.22,.98,14,1,1.91-1.74,3.5-4.68,3.5-7.4,0-1.02-.16-1.99-.47-2.91-.19-.55-.43-1.08-.71-1.58-6.69-2.79-13.04-1.55-17.94,.58-.57,1.19-.88,2.51-.88,3.9Z"/><circle cx="158.3" cy="149.5" r="3"/><path class="cls-13" d="M174.3,165.5l-39-6s16,12,39,6Z"/><ellipse class="cls-14" cx="101.13" cy="195.67" rx="1.52" ry="4.64" transform="translate(-108.87 262.07) rotate(-80.22)"/><path class="cls-9" d="M25.8,178.5s13.19-58.22,13.6-58.61-6.8,9.95-6.8,9.95l13.2-30.33-7,3s2-33,12-34c0,0,6-3.24,19.5-6.12s27.5,1.12,27.5,1.12l-3-4,9.5,6.4-1.63-4.74,7.13,6.34,4,3-3-9s24-5,36,3c0,0,4-1,25,9s27.17,15.93,25.09,57.47c0,0-.94,30.53,2.91,34.53l3,11s-.82-11,3-16,5-4,5-4c0,0,8-28,9-29s5-21,7-28c0,0-2-8-7-14l6,4s-25-56-79-81c0,0-13-7.99-28.5-1l-3.5,2,5-8s-5,3-10,8l4.69-8s-11.69,5-18.69,9,5-6,5-6c0,0-27-4.13-48.5,31.44,0,0-24.5-5.44-45.5,31.56l13-9S5.8,65.5,.8,99.5l5-7s-7.69,23.83,3.65,60.42l16.35,25.58Z"/><ellipse class="cls-14" cx="132.33" cy="195.51" rx="4.64" ry="1.52" transform="translate(-35.83 29.81) rotate(-11.33)"/><g><path class="cls-15" d="M91.97,187.17c.74-1.45,1.66-3,2.83-4.67,0,0-2.06,1.87-2.83,4.67Z"/><path class="cls-15" d="M138.31,182.18c1.21,1.64,2.17,3.16,2.95,4.59-.84-2.78-2.95-4.59-2.95-4.59Z"/><path class="cls-15" d="M141.26,186.77c.71,2.34,.52,5.36-2.6,8.57l-6.03,1.66s-10.6,6.31-16.11,8.25v-.21c-5.28-1.45-15.65-7.88-15.65-7.88l-6.08-1.5c-3.2-3.12-3.47-6.14-2.83-8.5-8.12,15.96,7.83,19.33,7.83,19.33,4,4,16.89,6.22,16.89,6.22v-.37c3.16-.53,13.96-2.56,17.27-6.05,0,0,15.85-3.8,7.3-19.54Z"/></g><path class="cls-16" d="M161.3,218.45c-17.74-5.81-44.46-4.42-45.7-4.02-5.19-.28-26.26-.98-42.8,4.92,0,0-4,2.91,1,7.75s20.51,17.41,42.99,18.18v.22c23.36-.79,38.86-14.3,43.73-19.27,4.86-4.97,.78-7.77,.78-7.77Z"/><path class="cls-11" d="M116.17,237.78s-.14,0-.41-.02c-2.58-.12-13.24-.39-32.46-7.77l-5-5.67,36.88-2.33,.56,.02,41.56,1.51-7,7.47c-17.41,7.24-26.77,5.93-31.77,6.45l-2.36,.33Z"/><path class="cls-9" d="M211.17,213.23l-3.27-9.92,3.11,4.16-5.54-20.1-11,34.87-3.1-1.48,.14,5.13-3.06-2.05,.29,10.84-8.05-1.63s4.39,2.45,4.8,5.16c.41,2.71-6.31,12.89-16.34,12.16l1.2-29.65s-12.49-18.07-22.46-16.8c-9.63,1.23-19.76-.34-32.38,1.19v-.07c-13.28-1.45-19.72,.45-29.72-.55s-22,17.4-22,17.4l2,29.6c-10,1-17-9-16.66-11.72,.34-2.72,4.66-5.28,4.66-5.28l-8,1.84v-10.84l-3,2.13v-5.13l-3.06,1.56-11.94-34.56-5,20.25,3-4.25-3,10,2.49-2.78-.99,12.28c1.5,26.5,22.2,56.95,22.2,56.95,21.7,57.45,72.3,49.55,72.3,49.55,0,0,50.32,6.8,70.47-51.21,0,0,19.88-30.99,20.66-57.52l-1.32-12.24,2.57,2.71Zm-50.28,43.54s-6.89,21.05-24.01,19l-5.55,.36s-1.71-7.63-.38-14.19c1.14-5.63-10.82-5.6-14.25-5.48-3.42-.08-13.66,.12-12.41,5.57,1.5,6.53,0,14.2,0,14.2l-5.55-.21c-17.05,2.51-24.51-18.34-24.51-18.34-8.56-24.83-1.94-37.21-1.94-37.21,15.01-5.49,38.69-4.27,42.86-4l.03,.25s29.93-2.78,46.59,2.81c0,0,7.01,12.2-.88,37.25Z"/><circle cx="73.8" cy="147.5" r="3"/><path class="cls-13" d="M86.08,195.83l-28.71,27.07s6.37-18.96,28.71-27.07Z"/><path class="cls-13" d="M147.37,195.83l28.71,27.07s-6.37-18.96-28.71-27.07Z"/></g></svg>