<?xml version="1.0" encoding="UTF-8"?><svg id="Layer_2" xmlns="http://www.w3.org/2000/svg" viewBox="0 0 384.4 384.4"><defs><style>.cls-1{fill:#fff;}</style></defs><g id="Layer_1-2"><g><path class="cls-1" d="M320.25,220.35v99.9h-55v-93.5c0-22.4-8-37.7-27.9-37.7-15.2,0-24.2,10.3-28.2,20.3-1.5,3.6-1.9,8.5-1.9,13.5v97.4h-55V149.25h55v23.8c8-11.4,20.5-27.8,49.6-27.8,36.1,0,63.4,23.8,63.4,75.1Z"/><rect class="cls-1" x="64.25" y="149.25" width="55" height="171"/><path class="cls-1" d="M123.35,93.75c0,16.4-11.4,29.5-29.7,29.5h-.4c-17.6,0-29-13.1-29-29.5s11.7-29.5,29.7-29.5,29,12.7,29.4,29.5Z"/><path d="M384.15,30.15V351.25c0,17.3-13.2,32.9-30.8,32.9H33.05c-17.5,0-32.8-15.5-32.8-32.9V30.15C.25,12.85,15.55,.25,33.05,.25H353.45c17.5,0,30.8,12.6,30.7,29.9Zm-63.9,290.1v-99.9c0-51.3-27.3-75.1-63.4-75.1-29.1,0-41.6,16.4-49.6,27.8v-23.8h-55v171h55v-97.4c0-5,.4-9.9,1.9-13.5,4-10,13-20.3,28.2-20.3,19.9,0,27.9,15.3,27.9,37.7v93.5h55Zm-201,0V149.25h-55v171h55Zm-25.6-197c18.3,0,29.7-13.1,29.7-29.5-.4-16.8-11.4-29.5-29.4-29.5s-29.7,12.8-29.7,29.5,11.4,29.5,29,29.5h.4Z"/></g></g></svg>