<?xml version="1.0" encoding="UTF-8"?><svg id="Layer_2" xmlns="http://www.w3.org/2000/svg" viewBox="0 0 216.24 813.99"><defs><style>.cls-1{fill:none;stroke:#000;stroke-miterlimit:10;stroke-width:10px;}</style></defs><g id="Layer_1-2"><path class="cls-1" d="M104.66,308.21s16.16,.46,20.29,14.9l4.81,47.47s13.07,2.75,15.82,13.76l12.08,240.75m-53-316.88s-16.51,1.38-20.64,15.82l-4.81,47.47s-13.07,2.75-15.82,13.75l-12.28,244.75c16.11-11.46,35.82-18.2,57.1-18.2h.21m21.34-241.22c-25.07-7.34-51.36,.92-51.36,.92m76.13,198.57c-54.57-34.85-101.35,3.67-101.35,3.67m151.34,164.76s15.13-18.41,0-41.02c0,0-86.68-32.08-193.99,7.36,0,0-13.3,19.46,1.38,36.28,0,0,100.89-37.86,192.61-2.63ZM102.7,311.88L100.87,.03m-11.29,806.94l-6.07-7.83-21.86-28.2-20.88-26.94-7.3-9.41m104.11-119.17l-11.78,9.92-25.68,21.65-26.58,22.4-16.45,13.86-12.37,10.43-1.19,1m11.04-66.76c-2.75,2.11-5.39,4.37-7.9,6.79-9.42,9-17.11,20.05-22.48,32.49-4.76,10.99-7.71,23.07-8.44,35.78m-5.28,1.95h0m151.71,22.13l2.71,3.49,22.97,29.64m-69.91-36.7l-1.49,1.26-28.82,24.29-25.99,21.9-15.1,12.73-2.1,1.77m115.9-97.69l8.11-6.83,.25-.22,21.43-18.05m-60.32,22.67l-5.93-7.65-1.74-2.25-22.03-28.43-23.26-30m33.51,68.36l9.13-7.7,2.65-2.23,25.69-21.65,22.24-18.75,.56-.47m-83.48,52.4l-13.62-17.56-26.87-34.68-.23-.29m121.1,156.23l-2.22-2.86-27.01-34.84-21.85-28.2-.97-1.25m-70.31-29.23l-.46-.59-5.29-6.82-15.24-19.66m46.4,59.86l17.05,21.98,21.85,28.2,22.13,28.53m-105.21-49.67l14.36-12.1,17.73-14.94m19.68,74.57l5.33-4.49,25.98-21.9,28.82-24.29,26.58-22.4,2.93-2.47m8.29-37.83l-7.18-9.27-.22-.28-20.87-26.93-22.04-28.43-10.37-13.37m-95.79,126.57c1.74,6.13,4.01,12,6.77,17.56,5.17,10.44,12.01,19.77,20.14,27.57,9.11,8.77,19.83,15.61,31.63,19.96,3.7,1.37,7.51,2.49,11.4,3.34,6.02,1.33,12.25,2.02,18.63,2.02,8.09,0,15.93-1.12,23.41-3.22,12.45-3.48,23.87-9.68,33.7-17.98,9.01-7.61,16.67-16.96,22.54-27.6,4.16-7.5,7.42-15.64,9.63-24.25m2.55-39.93c-1.47-11.91-4.89-23.16-9.9-33.36-5.14-10.45-11.95-19.8-20.06-27.63-3.86-3.74-8.02-7.12-12.43-10.12-.98-.67-1.97-1.32-2.98-1.95-5.38-3.37-11.09-5.81-17.09-7.53-7.04-2.03-14.46-3.07-22.15-3.45-2.31-.12-4.65-.17-7.01-.18"/></g></svg>