<?xml version="1.0" encoding="UTF-8"?><svg id="Layer_2" xmlns="http://www.w3.org/2000/svg" viewBox="0 0 212.56 799.57"><defs><style>.cls-1{fill:#d8d8d8;}.cls-2{fill:none;stroke:#000;stroke-miterlimit:10;stroke-width:10px;}.cls-3{fill:#a5a4a4;}.cls-4{fill:#4f4f4f;}</style></defs><g id="Layer_2-2"><g id="Layer_2-2"><g id="Layer_1-2"><g><g><path class="cls-3" d="M32.96,721.5c-5.53,1.43-10.12,2.79-13.58,3.88-4.9,1.52-7.59,2.53-7.59,2.53-14.42-16.52-1.36-35.63-1.36-35.63,1.72-.63,3.43-1.24,5.13-1.83,9.28-3.24,18.39-5.93,27.28-8.15,.54-.14,1.08-.28,1.62-.4,14.37-3.52,28.18-5.81,41.23-7.19,7.9-.84,15.5-1.35,22.8-1.57,6.65-.23,13.02-.22,19.1-.03,11.03,.32,21.1,1.23,29.99,2.39,5.65,.74,10.82,1.58,15.48,2.46,10.88,2.04,18.92,4.25,23.5,5.66,2.89,.88,4.4,1.44,4.4,1.44,14.86,22.21,0,40.29,0,40.29h0c-2.3-.89-4.6-1.73-6.9-2.51-9.68-3.33-19.45-5.85-29.14-7.72-1.85-.36-3.69-.7-5.54-1-14.84-2.49-29.48-3.51-43.44-3.51-.81,0-1.61,0-2.42,0-15.87,.13-30.81,1.53-44.1,3.5-4.13,.61-8.09,1.27-11.87,1.96-9.43,1.72-17.73,3.64-24.58,5.43h0Z"/><path class="cls-1" d="M100.93,303.01c1.21-.24,1.94-.29,1.94-.29,0,0,15.87,.45,19.93,14.63l4.72,46.62c-22.05-6.45-45.06-.63-49.63,.67l4.7-46.39c3.19-11.16,13.9-14.38,18.33-15.24Z"/><path class="cls-4" d="M152.22,559.89l2.7,53.87c-.96-.66-1.93-1.3-2.93-1.92-5.28-3.31-10.89-5.71-16.79-7.4-6.91-1.99-14.2-3.02-21.76-3.39-2.27-.12-4.57-.17-6.89-.18h-.21c-10.77,0-21.14,1.77-30.82,5.02-7.82,2.62-15.19,6.21-21.98,10.64-1.11,.72-2.2,1.46-3.28,2.23l2.8-55.86c6.2-4.69,49.22-34.66,98.78-3.01l.36-.02h0Z"/><path class="cls-3" d="M143.07,377.49l9.15,182.4-.36,.02c-49.56-31.66-92.58-1.69-98.78,3.01l9.26-184.53c2.7-10.8,15.54-13.5,15.54-13.5l.02-.24c4.57-1.3,27.58-7.12,49.63-.67,0,0,12.84,2.7,15.54,13.51h0Z"/></g><g><path class="cls-2" d="M102.88,302.72s15.87,.45,19.93,14.63l4.72,46.62s12.84,2.7,15.54,13.51l9.15,182.4,2.7,53.87v.19"/><path class="cls-2" d="M102.88,302.72s-.74,.06-1.94,.29c-4.43,.86-15.14,4.09-18.33,15.24l-4.7,46.39-.02,.24s-12.84,2.7-15.54,13.5l-9.26,184.53-2.8,55.86c1.08-.77,2.17-1.51,3.28-2.23,6.79-4.43,14.16-8.01,21.98-10.64,9.68-3.25,20.05-5.01,30.82-5.01h.21"/><path class="cls-2" d="M127.53,363.97c-22.05-6.45-45.06-.63-49.63,.67-.53,.15-.82,.24-.82,.24"/><path class="cls-2" d="M151.86,559.91c-49.56-31.66-92.58-1.69-98.78,3.01-.5,.38-.77,.6-.77,.6"/><path class="cls-2" d="M194.05,722.82c2.31,.79,4.61,1.62,6.9,2.5h0s14.86-18.07,0-40.28c0,0-1.51-.56-4.4-1.44-4.59-1.4-12.62-3.61-23.5-5.66-4.66-.87-9.83-1.72-15.48-2.46-8.89-1.16-18.96-2.06-29.99-2.39-6.08-.19-12.45-.2-19.1,.03-7.3,.23-14.9,.73-22.8,1.57-13.05,1.38-26.86,3.67-41.23,7.19-.54,.13-1.08,.27-1.62,.4-8.9,2.22-18,4.91-27.28,8.15-1.7,.59-3.41,1.2-5.13,1.83,0,0-13.06,19.11,1.36,35.63,0,0,2.69-1.01,7.59-2.53,3.47-1.09,8.05-2.45,13.58-3.88,6.86-1.79,15.15-3.71,24.58-5.43,3.78-.7,7.75-1.36,11.87-1.96,13.29-1.96,28.23-3.37,44.1-3.5,.81,0,1.61,0,2.42,0,13.96,0,28.6,1.01,43.44,3.51,1.85,.3,3.69,.64,5.54,1,9.69,1.87,19.46,4.39,29.14,7.72h0Z"/><polyline class="cls-2" points="100.95 306.32 100.93 303.01 99.15 .03"/><polyline class="cls-2" points="88.06 792.59 82.1 784.89 60.63 757.2 40.12 730.74 32.96 721.5"/><polyline class="cls-2" points="135.21 604.45 123.64 614.19 98.42 635.46 72.31 657.46 56.15 671.07 44 681.31 42.84 682.3"/><path class="cls-2" d="M53.68,616.73c-2.7,2.07-5.29,4.29-7.76,6.67-9.25,8.84-16.81,19.69-22.08,31.91-4.68,10.79-7.57,22.66-8.29,35.14"/><polyline class="cls-2" points="159.37 714.1 162.03 717.53 184.59 746.64"/><polyline class="cls-2" points="115.93 710.59 114.47 711.83 86.16 735.69 60.63 757.2 45.8 769.7 43.74 771.44"/><polyline class="cls-2" points="157.57 675.49 165.54 668.78 165.78 668.57 186.83 650.84"/><polyline class="cls-2" points="127.59 673.1 121.76 665.59 120.05 663.38 98.42 635.46 75.57 605.99"/><polyline class="cls-2" points="108.48 673.13 117.45 665.57 120.05 663.38 145.29 642.12 167.13 623.7 167.68 623.24"/><polyline class="cls-2" points="85.69 674.7 72.31 657.46 45.92 623.4 45.69 623.11"/><polyline class="cls-2" points="164.64 776.56 162.45 773.75 135.93 739.53 114.47 711.83 113.51 710.6"/><polyline class="cls-2" points="44.46 681.89 44 681.31 38.81 674.62 23.84 655.31"/><polyline class="cls-2" points="69.41 714.1 86.16 735.69 107.62 763.39 129.36 791.41"/><polyline class="cls-2" points="26.02 742.62 40.12 730.74 57.54 716.06"/><polyline class="cls-2" points="76.87 789.3 82.1 784.89 107.62 763.39 135.93 739.53 162.03 717.53 164.91 715.1"/><polyline class="cls-2" points="173.05 677.95 166 668.84 165.78 668.57 145.29 642.12 123.64 614.19 113.45 601.06"/><path class="cls-2" d="M19.37,725.37c1.71,6.02,3.94,11.79,6.65,17.25,5.08,10.25,11.8,19.42,19.78,27.08,8.95,8.61,19.48,15.33,31.07,19.6,3.63,1.35,7.38,2.45,11.2,3.28,5.91,1.31,12.03,1.98,18.3,1.98,7.95,0,15.65-1.1,22.99-3.16,12.23-3.42,23.44-9.51,33.1-17.66,8.85-7.47,16.37-16.66,22.14-27.11,4.09-7.37,7.29-15.36,9.46-23.82"/><path class="cls-2" d="M196.56,683.6c-1.44-11.7-4.8-22.75-9.72-32.77-5.05-10.26-11.74-19.45-19.7-27.14-3.79-3.67-7.88-6.99-12.21-9.94-.96-.66-1.93-1.3-2.93-1.92-5.28-3.31-10.89-5.71-16.79-7.4-6.91-1.99-14.2-3.02-21.76-3.39-2.27-.12-4.57-.17-6.89-.18"/></g></g></g></g></g></svg>