<?xml version="1.0" encoding="UTF-8"?><svg id="Layer_2" xmlns="http://www.w3.org/2000/svg" xmlns:xlink="http://www.w3.org/1999/xlink" viewBox="0 0 689.07 391.67"><defs><style>.cls-1{fill:url(#linear-gradient-2);isolation:isolate;opacity:.95;stroke:#535353;}.cls-1,.cls-2{stroke-width:10px;}.cls-2{fill:url(#linear-gradient);fill-rule:evenodd;stroke:#222;}</style><linearGradient id="linear-gradient" x1="151.46" y1="1513.56" x2="151.46" y2="1710.69" gradientTransform="translate(193.08 1906.52) scale(1 -1)" gradientUnits="userSpaceOnUse"><stop offset="0" stop-color="#b2b2b2"/><stop offset="1" stop-color="#f8f8f8"/></linearGradient><linearGradient id="linear-gradient-2" x1="18.21" y1="1547.87" x2="16.95" y2="1740.59" gradientTransform="translate(193.08 1906.52) scale(1 -1)" gradientUnits="userSpaceOnUse"><stop offset="0" stop-color="#515151"/><stop offset="1" stop-color="#cbcbcb"/></linearGradient></defs><g id="Layer_1-2"><g id="g2848" transform="translate(-0.922304, 0.5)"><path id="path1877" class="cls-2" d="M606.23,386.67c26.53,0,43.54-1.52,55.8-11.56,12.26-10.05,35.52-33.64,11.76-91.82C633.1,183.66,591.12,5,591.12,5H97.54S58.22,172.08,14.86,283.29c-22.83,58.55-.5,81.77,11.76,91.82,12.26,10.05,29.27,11.56,55.8,11.56H606.23Z"/><path id="rect2811" class="cls-1" d="M111.39,171.27h239.33v183.91H106.35c-75.83-4.46-10.76-112.25,5.04-183.91Z"/><g><path d="M147.7,81.05l.62-3.5h5.68l-.49,2.77c-1.2,6.78,1.27,10.13,7.18,10.13s9.56-3.35,10.75-10.13l4.96-28.13h-16.47l.93-5.25h22.3l-6.01,34.11c-1.68,9.55-8.01,14.87-17.34,14.87s-13.78-5.32-12.1-14.87Z"/><path d="M190.12,77.26c2.13-12.1,8.68-18.66,18.74-18.66s14.29,6.56,12.16,18.66c-2.13,12.1-8.68,18.66-18.74,18.66s-14.29-6.56-12.16-18.66Zm25,0c1.56-8.82-.91-13.41-7.18-13.41s-10.36,4.59-11.91,13.41,.91,13.41,7.18,13.41,10.36-4.59,11.91-13.41Z"/><path d="M257.24,95.05h-5.03l.7-6.05h-.29c-2.84,4.52-7.2,6.92-12.59,6.92-7.51,0-10.68-4.74-9.12-13.56l4.04-22.88h5.68l-4,22.67c-1,5.68,.97,8.53,5.71,8.53,5.9,0,10.77-4.45,11.86-10.64l3.62-20.55h5.68l-6.27,35.57Z"/><path d="M277.8,59.48h5.03l-.7,6.05h.29c2.83-4.45,7.12-6.92,12.37-6.92,7.36,0,10.53,4.74,8.98,13.56l-.84,4.74h-5.68l.71-4.01c1.04-5.9-.96-9.04-5.62-9.04-5.61,0-10.4,4.45-11.5,10.64l-3.62,20.55h-5.68l6.27-35.57Z"/><path d="M317.15,59.48h5.03l-.7,6.05h.29c2.84-4.52,7.2-6.92,12.59-6.92,7.51,0,10.68,4.74,9.12,13.56l-4.04,22.88h-5.68l4-22.67c1-5.68-.97-8.53-5.71-8.53-5.9,0-10.77,4.45-11.86,10.64l-3.62,20.55h-5.68l6.27-35.57Z"/><path d="M351.59,85.28c1.21-6.85,6.75-10.57,15.71-10.57h9.98l.48-2.7c.95-5.39-1.48-8.16-7.16-8.16-4.66,0-7.75,1.82-9.17,5.32h-5.76c2.18-7,7.62-10.57,16-10.57,9.33,0,13.35,4.45,11.84,13.04l-4.13,23.4h-5.03l.7-6.05h-.29c-3.02,4.3-7.93,6.92-13.54,6.92-7.07,0-10.79-4.08-9.64-10.64Zm24.71-4.96l.13-.73h-9.98c-5.1,0-8.29,1.97-8.93,5.61-.6,3.43,1.51,5.47,5.81,5.47,6.34,0,11.95-4.52,12.98-10.35Z"/><path d="M400.1,83.75l6.25-35.42h-9.11l.89-5.03h14.79l-7,39.72c-.9,5.1,.84,7.65,5.21,7.65s7.08-2.55,7.98-7.65l.46-2.62h5.54l-.59,3.35c-1.38,7.8-6.52,12.17-14.39,12.17s-11.4-4.37-10.03-12.17Z"/><path d="M434.2,90.02h12.24l4.5-25.51h-12.24l.89-5.03h17.93l-5.38,30.54h12.24l-.89,5.03h-30.17l.89-5.03Zm16.85-42.64c.5-2.84,2.99-4.96,5.83-4.96s4.58,2.11,4.08,4.96-2.99,4.96-5.83,4.96-4.58-2.11-4.08-4.96Z"/><path d="M474.95,85.79h5.83c-.06,3.21,2.78,4.88,8.1,4.88s9.15-1.89,9.81-5.61c.5-2.84-1.14-4.3-5.83-4.96l-5.04-.73c-7.11-1.02-9.91-4.15-8.89-9.91,1.25-7.07,7.02-10.86,15.47-10.86s12.57,3.5,11.92,9.69h-5.9c.22-2.48-2.13-4.45-6.87-4.45s-8.14,1.97-8.72,5.25c-.5,2.84,1.14,4.3,5.83,4.96l5.05,.73c7.11,1.02,9.91,4.15,8.89,9.91-1.3,7.36-7.37,11.22-16.63,11.22s-13.7-3.72-13.01-10.13Z"/><path d="M518.87,59.48h4.37l-.48,4.37h.29c1.78-3.5,4.35-5.25,7.7-5.25s5.1,1.68,5.42,5.25h.29c1.86-3.5,4.64-5.25,8.21-5.25,4.96,0,6.68,3.42,5.39,10.79l-4.52,25.65h-5.32l4.54-25.73c.66-3.72-.2-5.47-2.75-5.47-3.13,0-5.52,2.77-6.3,7.22l-4.23,23.98h-4.81l4.54-25.73c.64-3.64-.28-5.47-2.75-5.47-3.13,0-5.5,2.7-6.3,7.22l-4.23,23.98h-5.32l6.27-35.57Z"/></g><g><path d="M402.86,171.46h1.83l3.81,12.84h-1.62l-.97-3.39h-4.32l-.97,3.39h-1.58l3.81-12.84Zm2.67,8.05l-1.73-6.07h-.08l-1.73,6.07h3.54Z"/><path d="M410.35,174.81h1.63l2.67,7.45h.08l2.67-7.45h1.6l-3.54,9.49h-1.56l-3.54-9.49Z"/><path d="M421.83,182.96h3.27v-6.81h-3.27v-1.34h4.79v8.15h3.27v1.34h-8.05v-1.34Zm2.49-11.38c0-.76,.56-1.32,1.32-1.32s1.32,.56,1.32,1.32-.56,1.32-1.32,1.32-1.32-.56-1.32-1.32Z"/><path d="M432.51,181.83h1.56c.14,.86,.97,1.3,2.39,1.3s2.35-.51,2.35-1.5c0-.76-.51-1.15-1.79-1.32l-1.38-.19c-1.95-.27-2.84-1.11-2.84-2.65,0-1.89,1.36-2.9,3.62-2.9s3.52,.93,3.64,2.59h-1.58c-.06-.66-.78-1.19-2.04-1.19s-2.08,.53-2.08,1.4c0,.76,.51,1.15,1.79,1.32l1.38,.19c1.95,.27,2.84,1.11,2.84,2.65,0,1.96-1.44,3-3.91,3s-3.83-.99-3.95-2.7Z"/><path d="M443.27,179.54c0-3.21,1.44-4.96,4.14-4.96s4.14,1.75,4.14,4.96c0,.12,0,.27-.02,.41h-6.69c.1,2.12,.99,3.19,2.7,3.19,1.07,0,1.81-.43,2.2-1.25h1.69c-.54,1.69-1.85,2.65-3.91,2.65-2.78,0-4.26-1.73-4.26-5Zm6.67-.88c-.21-1.77-1.07-2.68-2.53-2.68s-2.32,.91-2.53,2.68h5.06Z"/><path d="M454.51,174.81h1.34l.1,1.61h.08c.54-1.21,1.6-1.85,3.04-1.85,2,0,3.07,1.26,3.07,3.62v6.11h-1.52v-6.05c0-1.52-.66-2.28-1.93-2.28-1.58,0-2.67,1.19-2.67,2.84v5.49h-1.52v-9.49Z"/><path d="M476.19,171.46h3.03c3.7,0,5.27,1.93,5.27,6.42s-1.58,6.42-5.27,6.42h-3.03v-12.84Zm2.9,11.44c2.76,0,3.79-1.38,3.79-5.02s-1.03-5.02-3.79-5.02h-1.34v10.04h1.34Z"/><path d="M486.71,181.7c0-1.83,1.3-2.82,3.7-2.82h2.67v-.72c0-1.44-.78-2.18-2.3-2.18-1.25,0-1.98,.49-2.2,1.42h-1.54c.25-1.87,1.54-2.82,3.77-2.82,2.49,0,3.77,1.19,3.77,3.48v6.25h-1.34l-.1-1.61h-.08c-.6,1.15-1.79,1.85-3.29,1.85-1.89,0-3.07-1.09-3.07-2.84Zm6.36-1.32v-.19h-2.67c-1.36,0-2.12,.53-2.12,1.5,0,.91,.66,1.46,1.81,1.46,1.69,0,2.98-1.21,2.98-2.76Z"/><path d="M498.09,174.81h1.34l.1,1.61h.08c.54-1.21,1.6-1.85,3.04-1.85,2,0,3.07,1.26,3.07,3.62v6.11h-1.52v-6.05c0-1.52-.66-2.28-1.93-2.28-1.58,0-2.67,1.19-2.67,2.84v5.49h-1.52v-9.49Z"/><path d="M508.36,174.81h1.17l.08,1.17h.08c.31-.93,.92-1.4,1.81-1.4s1.44,.45,1.69,1.4h.08c.33-.93,.99-1.4,1.95-1.4,1.32,0,1.95,.91,1.95,2.88v6.85h-1.42v-6.87c0-.99-.31-1.46-.99-1.46-.84,0-1.34,.74-1.34,1.93v6.4h-1.28v-6.87c0-.97-.33-1.46-.99-1.46-.84,0-1.34,.72-1.34,1.93v6.4h-1.42v-9.49Z"/><path d="M519.39,181.7c0-1.83,1.3-2.82,3.7-2.82h2.67v-.72c0-1.44-.78-2.18-2.3-2.18-1.25,0-1.98,.49-2.2,1.42h-1.54c.25-1.87,1.54-2.82,3.77-2.82,2.49,0,3.77,1.19,3.77,3.48v6.25h-1.34l-.1-1.61h-.08c-.6,1.15-1.79,1.85-3.29,1.85-1.89,0-3.07-1.09-3.07-2.84Zm6.36-1.32v-.19h-2.67c-1.36,0-2.12,.53-2.12,1.5,0,.91,.66,1.46,1.81,1.46,1.69,0,2.98-1.21,2.98-2.76Z"/><path d="M531.16,174.81h1.34l.1,1.61h.08c.54-1.19,1.58-1.85,2.98-1.85,1.96,0,3.03,1.26,3.03,3.62v1.26h-1.52v-1.07c0-1.58-.68-2.41-1.93-2.41-1.5,0-2.57,1.19-2.57,2.84v5.49h-1.52v-9.49Z"/><path d="M542.08,170.49h1.52v8.56h.08l4.07-4.24h2.02l-4.24,4.34,4.51,5.16h-1.98l-4.38-5.02h-.08v5.02h-1.52v-13.81Z"/><path d="M400.16,202.81h4.01c2.61,0,3.89,1.21,3.89,3.6,0,1.93-.84,3.09-2.53,3.46l2.78,5.78h-1.73l-2.69-5.64h-2.18v5.64h-1.56v-12.84Zm3.81,5.8c1.73,0,2.47-.68,2.47-2.2s-.74-2.2-2.47-2.2h-2.26v4.4h2.26Z"/><path d="M410.45,213.04c0-1.83,1.3-2.82,3.7-2.82h2.67v-.72c0-1.44-.78-2.18-2.3-2.18-1.25,0-1.99,.49-2.2,1.42h-1.54c.25-1.87,1.54-2.82,3.77-2.82,2.49,0,3.77,1.19,3.77,3.48v6.25h-1.34l-.1-1.61h-.08c-.6,1.15-1.79,1.85-3.29,1.85-1.89,0-3.07-1.09-3.07-2.84Zm6.36-1.32v-.19h-2.67c-1.36,0-2.12,.53-2.12,1.5,0,.91,.66,1.46,1.81,1.46,1.69,0,2.98-1.21,2.98-2.76Z"/><path d="M421.21,210.9c0-3.05,1.4-4.98,3.77-4.98,1.36,0,2.33,.64,2.82,1.75h.08v-5.84h1.52v13.81h-1.34l-.1-1.61h-.08c-.47,1.19-1.44,1.85-2.88,1.85-2.41,0-3.79-1.91-3.79-4.98Zm6.67,.23v-.47c0-2.1-1.05-3.35-2.63-3.35s-2.47,1.26-2.47,3.58,.9,3.58,2.47,3.58,2.63-1.25,2.63-3.35Z"/><path d="M432.72,214.3h3.27v-6.81h-3.27v-1.34h4.79v8.15h3.27v1.34h-8.05v-1.34Zm2.49-11.38c0-.76,.56-1.32,1.32-1.32s1.32,.56,1.32,1.32-.56,1.32-1.32,1.32-1.32-.56-1.32-1.32Z"/><path d="M443.23,210.9c0-3.23,1.44-4.98,4.12-4.98s4.12,1.75,4.12,4.98-1.44,4.98-4.12,4.98-4.12-1.75-4.12-4.98Zm6.67,0c0-2.35-.88-3.58-2.55-3.58s-2.55,1.23-2.55,3.58,.88,3.58,2.55,3.58,2.55-1.23,2.55-3.58Z"/><path d="M459.53,212.51h-5.72v-1.52l5.7-7.8h1.54v7.98h1.75v1.34h-1.75v3.13h-1.52v-3.13Zm0-1.34v-5.68h-.08l-4.1,5.68h4.18Z"/><path d="M400.27,234.15h4.09c2.53,0,3.89,1.28,3.89,3.7s-1.36,3.7-3.89,3.7h-2.53v5.45h-1.56v-12.84Zm3.89,5.99c1.67,0,2.47-.76,2.47-2.3s-.8-2.3-2.47-2.3h-2.33v4.59h2.33Z"/><path d="M415.95,243.86h-5.72v-1.52l5.7-7.8h1.54v7.98h1.75v1.34h-1.75v3.13h-1.52v-3.13Zm0-1.34v-5.68h-.08l-4.1,5.68h4.18Z"/><path d="M432.57,240.55h7.78v1.52h-7.78v-1.52Z"/><path d="M454.51,234.15h3.77c2.59,0,3.87,1.07,3.87,3.27,0,1.36-.56,2.28-1.71,2.74v.06c1.52,.41,2.28,1.46,2.28,3.17,0,2.41-1.28,3.6-3.89,3.6h-4.32v-12.84Zm3.64,5.51c1.67,0,2.43-.64,2.43-2.06s-.76-2.04-2.43-2.04h-2.08v4.1h2.08Zm.54,5.93c1.67,0,2.41-.7,2.41-2.26s-.74-2.28-2.41-2.28h-2.63v4.53h2.63Z"/><path d="M465.02,242.24c0-3.23,1.44-4.98,4.12-4.98s4.12,1.75,4.12,4.98-1.44,4.98-4.12,4.98-4.12-1.75-4.12-4.98Zm6.67,0c0-2.35-.88-3.58-2.55-3.58s-2.55,1.23-2.55,3.58,.88,3.58,2.55,3.58,2.55-1.23,2.55-3.58Z"/><path d="M476.69,237.5h1.34l.1,1.61h.08c.54-1.19,1.58-1.85,2.98-1.85,1.96,0,3.03,1.26,3.03,3.62v1.26h-1.52v-1.07c0-1.58-.68-2.41-1.93-2.41-1.5,0-2.57,1.19-2.57,2.84v5.49h-1.52v-9.49Z"/><path d="M487.2,237.5h1.34l.1,1.61h.08c.54-1.21,1.6-1.85,3.04-1.85,2,0,3.07,1.26,3.07,3.62v6.11h-1.52v-6.05c0-1.52-.66-2.28-1.93-2.28-1.58,0-2.67,1.19-2.67,2.84v5.49h-1.52v-9.49Z"/><path d="M498.09,233.18h1.52v5.84h.08c.54-1.13,1.56-1.75,2.96-1.75,2,0,3.07,1.26,3.07,3.62v6.11h-1.52v-6.05c0-1.52-.66-2.28-1.93-2.28-1.58,0-2.67,1.19-2.67,2.84v5.49h-1.52v-13.81Z"/><path d="M508.6,242.24c0-3.23,1.44-4.98,4.12-4.98s4.12,1.75,4.12,4.98-1.44,4.98-4.12,4.98-4.12-1.75-4.12-4.98Zm6.67,0c0-2.35-.88-3.58-2.55-3.58s-2.55,1.23-2.55,3.58,.88,3.58,2.55,3.58,2.55-1.23,2.55-3.58Z"/><path d="M521.38,243.97v-9.46h-2.43v-1.34h3.95v10.6c0,1.36,.58,2.04,1.75,2.04s1.77-.68,1.77-2.04v-.7h1.48v.9c0,2.08-1.17,3.25-3.27,3.25s-3.25-1.17-3.25-3.25Z"/><path d="M530.15,237.5h1.17l.08,1.17h.08c.31-.93,.92-1.4,1.81-1.4s1.44,.45,1.69,1.4h.08c.33-.93,.99-1.4,1.95-1.4,1.32,0,1.95,.91,1.95,2.88v6.85h-1.42v-6.87c0-.99-.31-1.46-.99-1.46-.84,0-1.34,.74-1.34,1.93v6.4h-1.28v-6.87c0-.97-.33-1.46-.99-1.46-.84,0-1.34,.72-1.34,1.93v6.4h-1.42v-9.49Z"/><path d="M400.57,265.49h7.67v1.4h-6.11v4.2h4.94v1.4h-4.94v5.84h-1.56v-12.84Z"/><path d="M409.26,280.39v-.39h1.44v.19c0,.84,.39,1.25,1.19,1.25s1.17-.39,1.65-1.71l.49-1.32-3.68-9.57h1.63l2.74,7.45h.08l2.59-7.45h1.6l-4.12,11.36c-.7,1.93-1.54,2.65-3,2.65-1.65,0-2.61-.93-2.61-2.45Z"/><path d="M421.48,273.57c0-3.21,1.44-4.96,4.14-4.96s4.14,1.75,4.14,4.96c0,.12,0,.27-.02,.41h-6.69c.1,2.12,.99,3.19,2.7,3.19,1.07,0,1.81-.43,2.2-1.25h1.69c-.54,1.69-1.85,2.65-3.91,2.65-2.78,0-4.26-1.73-4.26-5Zm6.67-.88c-.21-1.77-1.07-2.68-2.53-2.68s-2.32,.91-2.53,2.68h5.06Z"/><path d="M432.72,268.84h1.34l.1,1.61h.08c.54-1.21,1.6-1.85,3.04-1.85,2,0,3.07,1.26,3.07,3.62v6.11h-1.52v-6.05c0-1.52-.66-2.28-1.93-2.28-1.58,0-2.67,1.19-2.67,2.84v5.49h-1.52v-9.49Z"/><path d="M443.4,275.86h1.56c.14,.86,.97,1.3,2.39,1.3s2.35-.51,2.35-1.5c0-.76-.51-1.15-1.79-1.32l-1.38-.19c-1.95-.27-2.84-1.11-2.84-2.65,0-1.89,1.36-2.9,3.62-2.9s3.52,.93,3.64,2.59h-1.58c-.06-.66-.78-1.19-2.04-1.19s-2.08,.53-2.08,1.4c0,.76,.51,1.15,1.79,1.32l1.38,.19c1.95,.27,2.84,1.11,2.84,2.65,0,1.96-1.44,3-3.91,3s-3.83-.99-3.95-2.7Z"/><path d="M464.92,275.01h1.6c.08,1.34,1.01,2.1,2.61,2.1s2.59-.82,2.59-2.22c0-1.17-.58-1.79-1.98-2.12l-1.36-.33c-2.18-.52-3.15-1.63-3.15-3.62,0-2.2,1.48-3.56,3.87-3.56s3.79,1.26,3.87,3.35h-1.6c-.1-1.21-.91-1.89-2.3-1.89s-2.26,.78-2.26,2.1c0,1.19,.58,1.79,1.99,2.12l1.36,.33c2.18,.52,3.15,1.63,3.15,3.62,0,2.31-1.56,3.68-4.18,3.68s-4.12-1.28-4.2-3.56Z"/><path d="M477.8,275.32v-5.14h-2.43v-1.34h2.51l.23-3.35h1.21v3.35h4.3v1.34h-4.3v4.94c0,1.36,.58,2.04,1.75,2.04s1.77-.68,1.77-2.04v-.7h1.48v.9c0,2.08-1.17,3.25-3.27,3.25s-3.25-1.17-3.25-3.25Z"/><path d="M487.2,276.99h3.27v-6.81h-3.27v-1.34h4.79v8.15h3.27v1.34h-8.05v-1.34Zm2.49-11.38c0-.76,.56-1.32,1.32-1.32s1.32,.56,1.32,1.32-.56,1.32-1.32,1.32-1.32-.56-1.32-1.32Z"/><path d="M500.13,270.76h-2.43v-1.34h2.43v-1.89c0-2.08,1.17-3.25,3.27-3.25,1.89,0,3.04,.97,3.23,2.72h-1.5c-.17-.88-.74-1.32-1.71-1.32-1.19,0-1.77,.68-1.77,2.04v1.69h4.3v1.34h-4.3v7.57h-1.52v-7.57Z"/><path d="M510.48,275.32v-5.14h-2.43v-1.34h2.51l.23-3.35h1.21v3.35h4.3v1.34h-4.3v4.94c0,1.36,.58,2.04,1.75,2.04s1.77-.68,1.77-2.04v-.7h1.48v.9c0,2.08-1.17,3.25-3.27,3.25s-3.25-1.17-3.25-3.25Z"/><path d="M519.66,275.86h1.56c.14,.86,.97,1.3,2.39,1.3s2.35-.51,2.35-1.5c0-.76-.51-1.15-1.79-1.32l-1.38-.19c-1.95-.27-2.84-1.11-2.84-2.65,0-1.89,1.36-2.9,3.62-2.9s3.52,.93,3.64,2.59h-1.58c-.06-.66-.78-1.19-2.04-1.19s-2.08,.53-2.08,1.4c0,.76,.51,1.15,1.79,1.32l1.38,.19c1.95,.27,2.84,1.11,2.84,2.65,0,1.96-1.44,3-3.91,3s-3.83-.99-3.95-2.7Z"/><path d="M532.27,275.32v-5.14h-2.43v-1.34h2.51l.23-3.35h1.21v3.35h4.3v1.34h-4.3v4.94c0,1.36,.58,2.04,1.75,2.04s1.77-.68,1.77-2.04v-.7h1.48v.9c0,2.08-1.17,3.25-3.27,3.25s-3.25-1.17-3.25-3.25Z"/><path d="M541.67,276.99h3.27v-6.81h-3.27v-1.34h4.79v8.15h3.27v1.34h-8.05v-1.34Zm2.49-11.38c0-.76,.56-1.32,1.32-1.32s1.32,.56,1.32,1.32-.56,1.32-1.32,1.32-1.32-.56-1.32-1.32Z"/><path d="M551.94,273.59c0-3.05,1.4-4.98,3.77-4.98,1.36,0,2.33,.64,2.82,1.75h.08v-5.84h1.52v13.81h-1.34l-.1-1.61h-.08c-.47,1.19-1.44,1.85-2.88,1.85-2.41,0-3.79-1.91-3.79-4.98Zm6.67,.23v-.47c0-2.1-1.05-3.35-2.63-3.35s-2.47,1.26-2.47,3.58,.9,3.58,2.47,3.58,2.63-1.25,2.63-3.35Z"/><path d="M563.11,273.57c0-3.21,1.44-4.96,4.14-4.96s4.14,1.75,4.14,4.96c0,.12,0,.27-.02,.41h-6.69c.1,2.12,.99,3.19,2.7,3.19,1.07,0,1.81-.43,2.2-1.25h1.69c-.54,1.69-1.85,2.65-3.91,2.65-2.78,0-4.26-1.73-4.26-5Zm6.67-.88c-.21-1.77-1.07-2.68-2.53-2.68s-2.32,.91-2.53,2.68h5.06Z"/><path d="M574.35,268.84h1.34l.1,1.61h.08c.54-1.21,1.6-1.85,3.04-1.85,2,0,3.07,1.26,3.07,3.62v6.11h-1.52v-6.05c0-1.52-.66-2.28-1.93-2.28-1.58,0-2.67,1.19-2.67,2.84v5.49h-1.52v-9.49Z"/><path d="M584.62,273.59c0-3.05,1.4-4.98,3.77-4.98,1.36,0,2.33,.64,2.82,1.75h.08v-5.84h1.52v13.81h-1.34l-.1-1.61h-.08c-.47,1.19-1.44,1.85-2.88,1.85-2.41,0-3.79-1.91-3.79-4.98Zm6.67,.23v-.47c0-2.1-1.05-3.35-2.63-3.35s-2.47,1.26-2.47,3.58,.9,3.58,2.47,3.58,2.63-1.25,2.63-3.35Z"/><path d="M595.79,273.57c0-3.21,1.44-4.96,4.14-4.96s4.14,1.75,4.14,4.96c0,.12,0,.27-.02,.41h-6.69c.1,2.12,.99,3.19,2.7,3.19,1.07,0,1.81-.43,2.2-1.25h1.69c-.54,1.69-1.85,2.65-3.91,2.65-2.78,0-4.26-1.73-4.26-5Zm6.67-.88c-.21-1.77-1.07-2.68-2.53-2.68s-2.32,.91-2.53,2.68h5.06Z"/></g></g></g></svg>