<?xml version="1.0" encoding="iso-8859-1"?>
<!-- Generator: Adobe Illustrator 19.0.0, SVG Export Plug-In . SVG Version: 6.00 Build 0)  -->
<svg version="1.1" id="Layer_1" xmlns="http://www.w3.org/2000/svg" xmlns:xlink="http://www.w3.org/1999/xlink" x="0px" y="0px"
	 viewBox="0 0 512 512" style="enable-background:new 0 0 512 512;" xml:space="preserve">
<g transform="translate(1)">
	<path style="fill:#E0E2E3;" d="M254.573,110.933v50.347c0,12.8-8.533,23.893-20.48,26.453c-16.213,2.56-30.72-10.24-30.72-25.6
		v76.8c0,15.36-14.507,28.16-30.72,24.747c-11.947-1.707-20.48-13.653-20.48-25.6v-29.013c0,6.827-3.413,12.8-8.533,17.067v269.653
		c32.427,5.12,69.973,7.68,110.933,7.68c48.64,0,93.013-4.267,128.853-10.24V100.693
		C347.587,106.667,303.213,110.933,254.573,110.933L254.573,110.933z"/>
	<g>
		<path style="fill:#B9BDC5;" d="M124.867,229.547c-9.387-2.56-15.36-11.093-15.36-21.333V102.4c0-1.707,0-3.413,0.853-5.12
			c-2.56-0.853-5.12-0.853-7.68-1.707h-0.853C99.267,94.72,97.56,94.72,95,93.867h-0.853c-1.707-0.853-4.267-0.853-5.973-1.707
			c-0.853,0-0.853,0-1.707,0c-1.707-0.853-3.413-0.853-5.12-1.707c-0.853,0-0.853,0-1.707-0.853
			c-1.707-0.853-3.413-0.853-4.267-1.707c-0.853,0-0.853,0-1.707-0.853c-1.707-0.853-2.56-0.853-4.267-1.707
			c0.853,0,0,0-0.853-0.853c-0.853,0-1.707-0.853-3.413-0.853c-0.853,0-0.853-0.853-1.707-0.853
			c-0.853-0.853-1.707-0.853-2.56-1.707c-0.853,0-0.853-0.853-1.707-0.853c-0.853-0.853-1.707-0.853-2.56-1.707
			c-0.853,0-0.853-0.853-1.707-0.853c-0.853,0-1.707-0.853-1.707-1.707c-0.853,0-0.853-0.853-1.707-0.853
			c-0.853,0-1.707-0.853-1.707-0.853l-0.853-0.853c-0.853-0.853-1.707-1.707-1.707-1.707l-0.853-0.853
			c-0.853-0.853-1.707-1.707-1.707-1.707L43.8,68.267c0-0.853-0.853-0.853-0.853-1.707c0,0,0-0.853-0.853-0.853
			c0-0.853-0.853-0.853-0.853-1.707v-0.853c0-1.707,0-2.56,0-3.413v392.533c0,18.773,40.96,34.987,102.4,43.52V226.133
			C138.52,229.547,131.693,231.253,124.867,229.547"/>
		<path style="fill:#B9BDC5;" d="M467.907,452.267V59.733c0,16.213-33.28,31.573-84.48,40.96v392.533
			C434.627,483.84,467.907,468.48,467.907,452.267"/>
	</g>
	<path style="fill:#25B99A;" d="M160.707,354.133L160.707,354.133c-11.947-11.947-11.947-30.72,0-42.667l21.333-21.333
		l21.333,21.333c11.947,11.947,11.947,30.72,0,42.667l0,0C191.427,366.08,171.8,366.08,160.707,354.133"/>
	<path style="fill:#E8EDEE;" d="M220.44,502.613c11.093,0,22.187,0.853,34.133,0.853c17.92,0,34.987-0.853,51.2-1.707V109.227
		c-16.213,0.853-33.28,1.707-51.2,1.707v50.347c0,12.8-8.533,23.893-20.48,26.453c-5.12,0.853-9.387,0-13.653-0.853V502.613z"/>
	<path style="fill:#556080;" d="M262.253,426.667h-15.36c-117.76,0-214.187-110.933-214.187-246.613V128
		c0-5.12,3.413-8.533,8.533-8.533s8.533,3.413,8.533,8.533v52.053c0,126.293,88.747,229.547,197.12,229.547h15.36
		c108.373,0,197.12-103.253,197.12-229.547V128c0-5.12,3.413-8.533,8.533-8.533c5.12,0,8.533,3.413,8.533,8.533v52.053
		C476.44,315.733,380.013,426.667,262.253,426.667z"/>
	<path style="fill:#25B99A;" d="M254.573,8.533c-117.76,0-213.333,23.04-213.333,51.2c0,14.507,26.453,28.16,69.12,37.547
		c-0.853,1.707-0.853,3.413-0.853,5.12v105.813c0,9.387,5.973,18.773,15.36,21.333c14.507,3.413,27.307-6.827,27.307-20.48v29.013
		c0,12.8,8.533,23.893,20.48,26.453c16.213,3.413,30.72-9.387,30.72-24.747v-76.8c0,15.36,14.507,28.16,30.72,24.747
		c11.947-2.56,20.48-13.653,20.48-26.453v-50.347c117.76,0,213.333-23.04,213.333-51.2S372.333,8.533,254.573,8.533"/>
	<g>
		<path style="fill:#7383BF;" d="M109.507,102.4c0-1.707,0-3.413,0.853-5.12c-42.667-9.387-69.12-23.04-69.12-37.547V102.4
			c0,14.507,26.453,28.16,68.267,37.547V102.4z"/>
		<path style="fill:#7383BF;" d="M254.573,110.933V153.6c117.76,0,213.333-23.04,213.333-51.2V59.733
			C467.907,87.893,372.333,110.933,254.573,110.933"/>
	</g>
	<path d="M182.04,371.2c-10.24,0-19.627-3.413-27.307-11.093l0,0c-15.36-15.36-15.36-39.253,0-54.613l21.333-21.333
		c3.413-3.413,8.533-3.413,11.947,0l21.333,21.333c7.68,7.68,11.093,17.067,11.093,27.307s-4.267,20.48-11.093,27.307
		C201.667,367.787,191.427,371.2,182.04,371.2z M166.68,348.16c8.533,8.533,22.187,8.533,30.72,0
		c4.267-4.267,5.973-9.387,5.973-15.36s-2.56-11.093-5.973-15.36l-15.36-15.36l-15.36,15.36
		C158.147,325.973,158.147,339.627,166.68,348.16L166.68,348.16z"/>
	<path d="M262.253,426.667h-15.36c-117.76,0-214.187-110.933-214.187-246.613V128c0-5.12,3.413-8.533,8.533-8.533
		s8.533,3.413,8.533,8.533v52.053c0,126.293,88.747,229.547,197.12,229.547h15.36c108.373,0,197.12-103.253,197.12-229.547V128
		c0-5.12,3.413-8.533,8.533-8.533c5.12,0,8.533,3.413,8.533,8.533v52.053C476.44,315.733,380.013,426.667,262.253,426.667z"/>
	<path d="M177.773,273.067c-2.56,0-4.267,0-6.827-0.853c-16.213-3.413-27.307-17.92-27.307-34.987v-1.707
		c-5.973,3.413-13.653,3.413-20.48,1.707c-12.8-2.56-22.187-15.36-22.187-29.013V104.107c-45.227-11.093-68.267-25.6-68.267-44.373
		C32.707,20.48,144.493,0,254.573,0S476.44,20.48,476.44,59.733c0,38.4-105.813,58.88-213.333,59.733v41.813
		c0,17.067-11.093,31.573-27.307,34.987c-8.533,1.707-17.067,0-23.893-4.267v46.933c0,10.24-4.267,19.627-12.8,26.453
		C193.133,270.507,185.453,273.067,177.773,273.067z M160.707,209.067v29.013c0,8.533,5.973,16.213,13.653,17.92
		c5.12,0.853,10.24,0,14.507-3.413c4.267-3.413,5.973-7.68,5.973-12.8v-76.8c0-5.12,3.413-8.533,8.533-8.533
		c5.12,0,8.533,3.413,8.533,8.533s2.56,10.24,5.973,12.8c4.267,3.413,9.387,4.267,14.507,3.413
		c7.68-1.707,13.653-9.387,13.653-17.92v-50.347c0-5.12,3.413-8.533,8.533-8.533c134.827,0,204.8-28.16,204.8-42.667
		s-69.973-42.667-204.8-42.667s-204.8,28.16-204.8,42.667c0,5.12,12.8,18.773,62.293,29.013c4.267,0.853,7.68,5.12,6.827,10.24
		c0,0.853,0,1.707,0,3.413v105.813c0,5.973,4.267,11.947,9.387,12.8c5.12,1.707,9.387-0.853,11.093-2.56
		c3.413-2.56,5.12-5.973,5.12-10.24c0-5.12,3.413-8.533,8.533-8.533C158.147,199.68,160.707,203.947,160.707,209.067z"/>
	<path d="M109.507,148.48c-0.853,0-0.853,0-1.707,0c-49.493-11.093-75.093-26.453-75.093-46.08V59.733
		c0-5.12,3.413-8.533,8.533-8.533s8.533,3.413,8.533,8.533s12.8,18.773,62.293,29.013c4.267,0.853,7.68,5.12,6.827,10.24
		c0,0.853,0,1.707,0,3.413v37.547c0,2.56-0.853,5.12-3.413,6.827C112.92,147.627,111.213,148.48,109.507,148.48z M49.773,84.48
		v17.92c0,5.12,11.093,16.213,51.2,26.453v-24.747C77.933,98.133,60.867,92.16,49.773,84.48z"/>
	<path d="M254.573,162.133c-5.12,0-8.533-3.413-8.533-8.533v-42.667c0-5.12,3.413-8.533,8.533-8.533
		c134.827,0,204.8-28.16,204.8-42.667c0-5.12,3.413-8.533,8.533-8.533c5.12,0,8.533,3.413,8.533,8.533V102.4
		C476.44,141.653,364.653,162.133,254.573,162.133z M263.107,119.467v25.6c128.853-0.853,196.267-28.16,196.267-42.667V84.48
		C425.24,106.667,344.173,118.613,263.107,119.467z"/>
	<path d="M254.573,512c-110.08,0-221.867-20.48-221.867-59.733V59.733c0-5.12,3.413-8.533,8.533-8.533s8.533,3.413,8.533,8.533
		v0.853v0.853c0.853,0.853,0.853,0.853,0.853,1.707L51.48,64c0,0,0,0.853,0.853,0.853l0.853,0.853l0.853,0.853l0.853,0.853
		c0.853,0,0.853,0.853,1.707,0.853l0.853,0.853c0.853,0.853,1.707,0.853,2.56,1.707l0.853,0.853c0.853,0.853,1.707,0.853,2.56,1.707
		l0.853,0.853c0.853,0,2.56,0,3.413,0.853l1.707,0.853c0.853,0,1.707,0.853,2.56,0.853l1.707,0.853
		c0.853,0.853,2.56,0.853,3.413,1.707l1.707,0.853c1.707,0.853,2.56,0.853,4.267,1.707L82.2,90.453l2.56-8.533
		c1.707,0.853,3.413,0.853,5.12,1.707h0.853c1.707,0.853,3.413,0.853,5.973,1.707l-0.853,8.533l2.56-8.533
		c1.707,0.853,4.267,0.853,5.973,1.707c3.413,0.853,5.12,1.707,7.68,1.707c4.267,0.853,7.68,5.12,6.827,10.24
		c0,0.853,0,1.707,0,3.413v105.813c0,5.973,4.267,11.947,9.387,12.8c5.12,1.707,9.387-0.853,11.093-2.56
		c3.413-2.56,5.12-5.973,5.12-10.24c0-5.12,3.413-8.533,8.533-8.533c5.12,0,8.533,3.413,8.533,8.533v29.013
		c0,8.533,5.973,16.213,13.653,17.92c5.12,0.853,10.24,0,14.507-3.413c4.267-3.413,5.973-7.68,5.973-12.8v-76.8
		c0-5.12,3.413-8.533,8.533-8.533c5.12,0,8.533,3.413,8.533,8.533c0,5.12,2.56,10.24,5.973,12.8
		c4.267,3.413,9.387,4.267,14.507,3.413c7.68-1.707,13.653-9.387,13.653-17.92v-49.493c0-5.12,3.413-8.533,8.533-8.533
		c134.827,0,204.8-28.16,204.8-42.667c0-5.12,3.413-8.533,8.533-8.533c5.12,0,8.533,3.413,8.533,8.533v392.533
		C476.44,491.52,364.653,512,254.573,512z M49.773,84.48v367.787c0,14.507,69.973,42.667,204.8,42.667s204.8-28.16,204.8-42.667
		V84.48c-34.133,22.187-115.2,34.133-196.267,34.987v41.813c0,17.067-11.093,31.573-27.307,34.987
		c-8.533,1.707-17.067,0-23.893-4.267v46.933c0,10.24-4.267,19.627-12.8,26.453c-7.68,6.827-17.92,9.387-28.16,6.827
		c-16.213-3.413-27.307-17.92-27.307-34.987v-1.707c-5.973,3.413-13.653,3.413-20.48,1.707c-12.8-2.56-22.187-15.36-22.187-29.013
		V104.107c0,0,0,0-0.853,0h-0.853C97.56,103.253,95,102.4,93.293,102.4H92.44c-1.707-0.853-4.267-0.853-5.973-1.707H84.76
		c-1.707-0.853-3.413-0.853-5.12-1.707h-0.853c-2.56-0.853-3.413-0.853-5.12-1.707l-1.707-0.853c-1.707-1.707-3.413-2.56-5.12-2.56
		l-1.707-0.853c-1.707-0.853-2.56-0.853-4.267-1.707l-1.707-0.853c-0.853-0.853-2.56-0.853-3.413-1.707l-1.707-0.853
		c-0.853-0.853-1.707-0.853-2.56-1.707L49.773,84.48C50.627,85.333,49.773,84.48,49.773,84.48z"/>
</g>
<g>
</g>
<g>
</g>
<g>
</g>
<g>
</g>
<g>
</g>
<g>
</g>
<g>
</g>
<g>
</g>
<g>
</g>
<g>
</g>
<g>
</g>
<g>
</g>
<g>
</g>
<g>
</g>
<g>
</g>
</svg>
