<?xml version="1.0" encoding="UTF-8"?><svg id="Layer_1" xmlns="http://www.w3.org/2000/svg" viewBox="0 0 445 511.98"><defs><style>.cls-1{fill:#e8edee;}.cls-2{fill:#7383bf;}.cls-3{fill:#e0e2e3;}.cls-4{fill:#556080;}.cls-5{fill:#b9bdc5;}.cls-6{fill:#2890a6;}</style></defs><g transform="translate(1)"><path class="cls-3" d="M222,110.89v50.4c0,12.75-8.5,23.8-20.4,26.35-16.15,2.55-30.6-10.2-30.6-25.5v76.8c0,15.3-14.45,28.05-30.6,24.65-11.9-1.7-20.4-13.6-20.4-25.5v-29.54c0,7.2-3.6,13.5-9,18V495.73c32.46,5.12,70.04,7.69,111.03,7.69,48.68,0,93.1-4.27,128.97-10.25V100.64c-35.88,5.98-80.3,10.25-129,10.25h0Z"/><g><path class="cls-5" d="M93.36,229.5c-9.39-2.56-15.36-11.09-15.36-21.33V102.35s-.49-3.41,.36-5.12c-2.56-.85-5.12-.85-7.68-1.28h-.85c-2.56-1.28-6.83-2-6.83-2h-.85s-4.27-.99-5.97-2h-1.71c-1.71-.69-3.41-.69-5.12-1.55q-.85,0-1.71-.85c-1.71-.85-3.41-.85-4.27-1.71q-.85,0-1.71-.85c-1.71-.85-2.56-.85-4.27-1.71,.85,0,0,0-.85-.85-.85,0-1.71-.85-3.41-.85-.85,0-.85-.85-1.71-.85-.85-.85-1.71-.85-2.56-1.71-.85,0-.85-.85-1.71-.85-.85-.85-1.71-.85-2.56-1.71-.85,0-.85-.85-1.71-.85s-1.71-.85-1.71-1.71c-.85,0-.85-.85-1.71-.85s-1.71-.85-1.71-.85l-.85-.85-1.71-1.71-.85-.85-1.71-1.71-.85-.85c0-.85-.85-.85-.85-1.71,0,0,0-.85-.85-.85,0-.85-.85-.85-1.09-1.71V452.22c.24,18.77,102,43.52,102,43.52V226.08c-5.12,3.41-11.95,5.12-18.77,3.41"/><path class="cls-5" d="M436,450.95V60.91c0,16.12-33.09,31.39-84,40.73V491.94c50.91-9.33,84-24.61,84-40.73"/></g><path class="cls-6" d="M128.71,354.08h0c-11.95-11.95-11.95-30.72,0-42.67l21.33-21.33,21.33,21.33c11.95,11.95,11.95,30.72,0,42.67h0c-11.95,11.95-31.57,11.95-42.67,0"/><path class="cls-1" d="M189,502.56c11.05,0,22.1,.85,34,.85,17.85,0,34.85-.85,51-1.7V109.18c-16.15,.85-33.15,1.7-51,1.7v50.4c0,12.75-8.5,23.8-20.4,26.35-5.1,.85-9.35,0-13.6-.85V502.56h0Z"/><path class="cls-4" d="M230.64,426.95h-16.28C97.05,426.95,1,316.45,1,181.31v-51.82c0-4.55,3.57-8.38,8.12-8.53,5.31-.17,8.88,3.27,8.88,8.49v51.85c0,125.8,88.4,228.65,196.36,228.65h16.28c107.95,0,196.36-102.85,196.36-228.65v-51.82c0-4.55,3.57-8.38,8.12-8.53,5.31-.17,8.88,3.27,8.88,8.49v51.85c0,135.15-96.05,245.65-213.36,245.65Z"/><path class="cls-6" d="M222.07,8.48C104.31,8.48,8.73,31.52,8.73,59.68c0,14.51,26.45,28.16,69.12,37.55-.85,1.71-.85,3.41-.85,5.12v105.72c0,9.46,6.02,18.92,15.48,21.5,14.62,3.44,27.52-6.88,27.52-20.64v29.16c0,12.75,8.5,23.8,20.4,26.35,16.15,3.4,30.6-9.35,30.6-24.65v-76.8c0,15.3,14.45,28.05,30.6,24.65,11.9-2.55,20.4-13.6,20.4-26.35v-50.41c117.76,0,213.33-23.04,213.33-51.2S339.76,8.48,222,8.48"/><g><path class="cls-2" d="M77,102.34c0-1.7,0-3.4,.85-5.1C35.35,87.89,9,74.29,9,59.84v42.5c0,14.45,26.35,28.05,68,37.4v-37.4Z"/><path class="cls-2" d="M223,110.95v42.53c117.58,0,213-23,213-51.12V59.76c0,28.12-95.42,51.12-213,51.12"/></g><path d="M150.04,371.15c-10.24,0-19.63-3.41-27.31-11.09h0c-15.36-15.36-15.36-39.25,0-54.61l21.33-21.33c3.41-3.41,8.53-3.41,11.95,0l21.33,21.33c7.68,7.68,11.09,17.07,11.09,27.31s-4.27,20.48-11.09,27.31c-7.68,7.68-17.92,11.09-27.31,11.09Zm-15.36-23.04c8.53,8.53,22.19,8.53,30.72,0,4.27-4.27,5.97-9.39,5.97-15.36s-2.56-11.09-5.97-15.36l-15.36-15.36-15.36,15.36c-8.53,8.53-8.53,22.19,0,30.72h0Z"/><path d="M230.64,426.95h-16.28C97.05,426.95,1,316.45,1,181.31v-51.82c0-4.55,3.57-8.38,8.12-8.53,5.31-.17,8.88,3.27,8.88,8.49v51.85c0,125.8,88.4,228.65,196.36,228.65h16.28c107.95,0,196.36-102.85,196.36-228.65v-51.82c0-4.55,3.57-8.38,8.12-8.53,5.31-.17,8.88,3.27,8.88,8.49v51.85c0,135.15-96.05,245.65-213.36,245.65Z"/><path d="M146,272.95c-2.55,0-4.25,0-6.8-.85-16.15-3.4-27.2-17.85-27.2-34.85v-1.68c-6.02,3.44-13.76,3.44-20.64,1.72-12.9-2.58-22.36-15.48-22.36-29.24V104.02C23.81,92.94,.79,78.44,.79,59.68,.79,20.46,112.48,0,222.47,0s221.68,20.46,221.68,59.68-105.72,58.83-213.16,59.68v41.93c0,17-11.05,31.45-27.2,34.85-8.5,1.7-17,0-23.8-4.25v47.04c0,10.2-4.25,19.55-12.75,26.35-5.95,5.1-13.6,7.65-21.25,7.65Zm-17-63.72v28.84c0,8.5,5.95,16.15,13.6,17.85,5.1,.85,10.2,0,14.45-3.4s5.95-7.65,5.95-12.75v-76.78c0-4.55,3.57-8.38,8.12-8.53,5.31-.17,8.88,3.27,8.88,8.49s2.55,10.2,5.95,12.75c4.25,3.4,9.35,4.25,14.45,3.4,7.65-1.7,13.6-9.35,13.6-17.85v-50.41c0-4.72,3.83-8.53,8.55-8.53,134.65,0,204.54-28.13,204.54-42.62S357.19,17.07,222.52,17.07,17.96,45.2,17.96,59.69c0,5.11,12.79,18.75,62.22,28.98,4.26,.85,7.67,5.11,6.82,10.23v109.47c0,6,4.29,12,9.43,12.86,5.14,1.71,9.43-.86,11.14-2.57,3.42-2.57,5.14-5.99,5.14-10.27,0-4.05,2.69-7.69,6.68-8.41,6.41-1.16,9.61,3.51,9.61,9.25Z"/><path d="M77.63,147.95h-1.7C26.54,136.86,1,121.5,1,101.87V59.2c0-4.55,3.57-8.37,8.12-8.53,5.33-.18,8.91,3.27,8.91,8.53s12.77,18.77,62.16,29.01c4.26,.85,7.66,5.12,6.81,10.24v40.96c0,2.56-.85,5.12-3.41,6.83-2.55,.85-4.26,1.71-5.96,1.71ZM18,84.52v17.85c0,5.1,11.05,16.15,51,26.35v-24.65c-22.95-5.95-39.95-11.9-51-19.55Z"/><path d="M214,154.41v-44.47c0-4.19,3.41-7.59,7.6-7.58,137.24,.13,207.48-28.94,205.31-43.24-.5-3.31,1.76-6.49,4.99-7.36,7.04-1.91,12.09,1.79,12.09,8.01v42.59c0,39.29-112.22,59.74-222.4,59.63-4.19,0-7.6-3.39-7.6-7.58Zm17-35v25.57c128.68-.85,196-28.12,196-42.61v-17.9c-34.09,22.16-115.04,34.09-196,34.94Z"/><path d="M222.07,511.98C111.89,511.98,0,491.48,0,452.19V59.68s4.12-8.53,9.24-8.53,8.53,3.41,8.76,8.53v1.71q.62,.85,.62,1.71l.86,.85s0,.85,.85,.85l.85,.85,.85,.85,.85,.85c.85,0,.85,.85,1.71,.85l.85,.85c.85,.85,1.71,.85,2.56,1.71l.85,.85c.85,.85,1.71,.85,2.56,1.71l.85,.85c.85,0,2.56,0,3.41,.85l1.71,.85c.85,0,1.71,.85,2.56,.85l1.71,.85c.85,.85,2.56,.85,3.41,1.71l1.71,.85c1.71,.85,2.56,.85,4.27,1.71l-.85,8.54,2.56-8.53c1.71,.85,5.12,2.08,5.12,2.08h.74c1.72,.85,3.44,.85,6.02,1.71l-.86,8.53,2.58-8.53c1.72,.85,4.3,.85,6.02,1.71,3.44,.85,5.16,1.71,7.74,1.71,4.3,.85,7.74,5.12,6.88,10.24v109.23c0,5.97,4.3,11.95,9.46,12.8,5.16,1.71,9.46-.85,11.18-2.56,3.45-2.57,5.17-6,5.16-10.29-.01-4.68,3.92-8.49,8.6-8.49,5.16,0,8.6,3.41,8.6,8.53v28.68c0,8.5,5.95,16.15,13.6,17.85,5.1,.85,10.2,0,14.45-3.4s5.95-7.65,5.95-12.75v-76.78c0-4.55,3.57-8.38,8.12-8.53,5.31-.17,8.88,3.27,8.88,8.49s2.55,10.2,5.95,12.75c4.25,3.4,9.35,4.25,14.45,3.4,7.65-1.7,13.6-9.35,13.6-17.85v-50.51c0-4.19,3.41-7.59,7.6-7.58,137.24,.13,207.48-28.94,205.31-43.24-.5-3.31,1.76-6.49,4.99-7.36,7.04-1.91,12.09,1.79,12.09,8.01V452.19c-.85,39.29-112.74,59.79-222.93,59.79ZM18,84.43V452.22c-.23,14.51,69.75,42.67,204.57,42.67s205.43-42.67,205.43-42.67V84.36c-34.26,22.27-115.63,34.26-197,35.12v41.82c0,17-11.05,31.45-27.2,34.85-8.5,1.7-17,0-23.8-4.25v47.05c0,10.2-4.25,19.55-12.75,26.35-7.65,6.8-17.85,9.35-28.05,6.8-16.15-3.4-27.2-17.85-27.2-34.85v-1.78s-14.01,3.41-20.84,1.71c-12.8-2.56-22.19-15.36-22.16-29.01V103.95h-1.73c-1.71-.75-5.97-1-5.97-1h-.85l-5.97-2h-1.71s-3.41-1.16-5.12-2h-.85c-2.56-.87-3.41-.87-5.12-1.72l-1.71-.85c-1.71-1.71-3.41-2.56-5.12-2.56l-1.71-.85c-1.71-.85-2.56-.85-4.27-1.71l-1.71-.85c-.85-.85-2.56-.85-3.41-1.71l-1.71-.85c-.85-.85-1.71-.85-2.56-1.71l-1.71-1.71c.85,.85,.23,0,.23,0Z"/></g></svg>