<?xml version="1.0" encoding="UTF-8"?><svg id="Layer_2" xmlns="http://www.w3.org/2000/svg" viewBox="0 0 526.05 980.07"><defs><style>.cls-1{fill:#fff;}</style></defs><g id="Layer_1-2"><g><path d="M525.81,930.29c0,27.36-22.18,49.53-49.53,49.53H49.78c-27.35,0-49.53-22.17-49.53-49.53V54.6C.25,24.58,24.58,.25,54.6,.25H471.46c30.02,0,54.35,24.33,54.35,54.35V930.29Zm-37.84-112.13V150.22H39.46V818.16H487.97ZM348.94,91.36v-14.67H178.34v14.67h170.6Zm-43.95,807.98c0-23.18-18.79-41.96-41.96-41.96s-41.96,18.78-41.96,41.96,18.78,41.96,41.96,41.96,41.96-18.79,41.96-41.96Z"/><rect class="cls-1" x="39.46" y="150.22" width="448.51" height="667.94"/><rect class="cls-1" x="178.34" y="76.69" width="170.6" height="14.67"/><circle class="cls-1" cx="263.03" cy="899.34" r="41.96"/></g><rect class="cls-1" x="291.92" y="748.68" width="9.63" height="19.26"/></g></svg>